<svg width="28" height="29" viewBox="0 0 28 29" fill="none" xmlns="http://www.w3.org/2000/svg">
<g clip-path="url(#clip0_425_10919)">
<path d="M28.0001 14.481C28.0001 6.70049 21.7316 0.393494 14.0001 0.393494C6.26508 0.395244 -0.00341797 6.70049 -0.00341797 14.4827C-0.00341797 21.5125 5.11708 27.34 11.8091 28.397V18.5532H8.25658V14.4827H11.8126V11.3765C11.8126 7.84674 13.9038 5.89724 17.1011 5.89724C18.6341 5.89724 20.2353 6.17199 20.2353 6.17199V9.63699H18.4696C16.7318 9.63699 16.1893 10.7237 16.1893 11.8385V14.481H20.0708L19.4513 18.5515H16.1876V28.3952C22.8796 27.3382 28.0001 21.5107 28.0001 14.481Z" fill="#333333"/>
</g>
<defs>
<clipPath id="clip0_425_10919">
<rect width="28" height="28" fill="white" transform="translate(0 0.395264)"/>
</clipPath>
</defs>
</svg>
