<svg width="28" height="29" viewBox="0 0 28 29" fill="none" xmlns="http://www.w3.org/2000/svg">
<g clip-path="url(#clip0_425_10917)">
<path d="M14 0.395264C10.2008 0.395264 9.723 0.412764 8.23025 0.479264C6.7375 0.549264 5.72075 0.783764 4.83 1.13026C3.89566 1.4817 3.04936 2.03296 2.35025 2.74551C1.63813 3.44498 1.08694 4.29118 0.735 5.22526C0.3885 6.11426 0.15225 7.13276 0.084 8.62026C0.0175 10.1165 0 10.5925 0 14.397C0 18.198 0.0175 18.674 0.084 20.1668C0.154 21.6578 0.3885 22.6745 0.735 23.5653C1.09375 24.4858 1.5715 25.2663 2.35025 26.045C3.12725 26.8238 3.90775 27.3033 4.82825 27.6603C5.72075 28.0068 6.73575 28.243 8.22675 28.3113C9.72125 28.3778 10.1972 28.3953 14 28.3953C17.8027 28.3953 18.277 28.3778 19.7715 28.3113C21.2607 28.2413 22.281 28.0068 23.1718 27.6603C24.1055 27.3087 24.9512 26.7574 25.6497 26.045C26.4285 25.2663 26.9062 24.4858 27.265 23.5653C27.6098 22.6745 27.846 21.6578 27.916 20.1668C27.9825 18.674 28 18.198 28 14.3953C28 10.5925 27.9825 10.1165 27.916 8.62201C27.846 7.13276 27.6098 6.11426 27.265 5.22526C26.9131 4.29116 26.3619 3.44495 25.6497 2.74551C24.9509 2.0327 24.1045 1.48139 23.17 1.13026C22.2775 0.783764 21.259 0.547514 19.7698 0.479264C18.2752 0.412764 17.801 0.395264 13.9965 0.395264H14.0018H14ZM12.7452 2.91876H14.0018C17.7397 2.91876 18.1825 2.93101 19.6577 2.99926C21.0227 3.06051 21.7647 3.28976 22.2582 3.48051C22.911 3.73426 23.3783 4.03876 23.8682 4.52876C24.3582 5.01876 24.661 5.48426 24.9148 6.13876C25.1073 6.63051 25.3347 7.37251 25.396 8.73751C25.4643 10.2128 25.4783 10.6555 25.4783 14.3918C25.4783 18.128 25.4643 18.5725 25.396 20.0478C25.3347 21.4128 25.1055 22.153 24.9148 22.6465C24.6903 23.2544 24.332 23.804 23.8665 24.2548C23.3765 24.7448 22.911 25.0475 22.2565 25.3013C21.7665 25.4938 21.0245 25.7213 19.6577 25.7843C18.1825 25.8508 17.7397 25.8665 14.0018 25.8665C10.2638 25.8665 9.81925 25.8508 8.344 25.7843C6.979 25.7213 6.23875 25.4938 5.74525 25.3013C5.13712 25.0771 4.58697 24.7195 4.13525 24.2548C3.66931 23.8033 3.31052 23.2532 3.08525 22.6448C2.8945 22.153 2.66525 21.411 2.604 20.046C2.5375 18.5708 2.5235 18.128 2.5235 14.3883C2.5235 10.6503 2.5375 10.2093 2.604 8.73401C2.667 7.36901 2.8945 6.62701 3.087 6.13351C3.34075 5.48076 3.64525 5.01351 4.13525 4.52351C4.62525 4.03351 5.09075 3.73076 5.74525 3.47701C6.23875 3.28451 6.979 3.05701 8.344 2.99401C9.6355 2.93451 10.136 2.91701 12.7452 2.91526V2.91876ZM21.4743 5.24276C21.2536 5.24276 21.0352 5.28622 20.8313 5.37065C20.6275 5.45507 20.4423 5.57882 20.2863 5.73482C20.1303 5.89083 20.0066 6.07603 19.9221 6.27986C19.8377 6.48368 19.7943 6.70214 19.7943 6.92276C19.7943 7.14338 19.8377 7.36184 19.9221 7.56567C20.0066 7.7695 20.1303 7.9547 20.2863 8.1107C20.4423 8.26671 20.6275 8.39045 20.8313 8.47488C21.0352 8.55931 21.2536 8.60276 21.4743 8.60276C21.9198 8.60276 22.3471 8.42576 22.6622 8.1107C22.9773 7.79564 23.1542 7.36833 23.1542 6.92276C23.1542 6.4772 22.9773 6.04989 22.6622 5.73482C22.3471 5.41976 21.9198 5.24276 21.4743 5.24276ZM14.0018 7.20626C13.0481 7.19139 12.1011 7.36636 11.2157 7.72101C10.3304 8.07566 9.5244 8.60289 8.84476 9.27201C8.16513 9.94112 7.62539 10.7388 7.25697 11.6185C6.88856 12.4982 6.69883 13.4424 6.69883 14.3961C6.69883 15.3499 6.88856 16.2941 7.25697 17.1738C7.62539 18.0535 8.16513 18.8512 8.84476 19.5203C9.5244 20.1894 10.3304 20.7166 11.2157 21.0713C12.1011 21.4259 13.0481 21.6009 14.0018 21.586C15.8892 21.5566 17.6894 20.7861 19.0137 19.441C20.338 18.0958 21.0803 16.2838 21.0803 14.3961C21.0803 12.5085 20.338 10.6965 19.0137 9.35133C17.6894 8.00617 15.8892 7.23571 14.0018 7.20626ZM14.0018 9.72801C15.2396 9.72801 16.4267 10.2197 17.302 11.095C18.1773 11.9703 18.669 13.1574 18.669 14.3953C18.669 15.6331 18.1773 16.8202 17.302 17.6955C16.4267 18.5708 15.2396 19.0625 14.0018 19.0625C12.7639 19.0625 11.5768 18.5708 10.7015 17.6955C9.82623 16.8202 9.3345 15.6331 9.3345 14.3953C9.3345 13.1574 9.82623 11.9703 10.7015 11.095C11.5768 10.2197 12.7639 9.72801 14.0018 9.72801Z" fill="#333333"/>
</g>
<defs>
<clipPath id="clip0_425_10917">
<rect width="28" height="28" fill="white" transform="translate(0 0.395264)"/>
</clipPath>
</defs>
</svg>
