<svg width="16" height="17" viewBox="0 0 16 17" fill="none" xmlns="http://www.w3.org/2000/svg">
<g clip-path="url(#clip0_425_10914)">
<path fill-rule="evenodd" clip-rule="evenodd" d="M10.9964 2.8907C10.9963 2.30413 11.2025 1.73621 11.5788 1.28631C11.9552 0.836401 12.4778 0.533158 13.0551 0.429632C13.6325 0.326106 14.2279 0.428888 14.7371 0.719997C15.2463 1.01111 15.637 1.472 15.8407 2.02205C16.0444 2.5721 16.0483 3.17628 15.8516 3.72887C15.6548 4.28146 15.2701 4.74728 14.7646 5.04484C14.2591 5.34239 13.665 5.45273 13.0864 5.35655C12.5078 5.26036 11.9814 4.96378 11.5994 4.51869L4.88136 7.6387C5.0358 8.12813 5.0358 8.65326 4.88136 9.14269L11.5994 12.2627C12.0032 11.793 12.567 11.49 13.1816 11.4123C13.7961 11.3347 14.4176 11.4879 14.9255 11.8424C15.4335 12.1968 15.7918 12.7272 15.931 13.3308C16.0702 13.9344 15.9804 14.5682 15.6789 15.1093C15.3775 15.6504 14.8859 16.0603 14.2994 16.2597C13.713 16.459 13.0734 16.4335 12.5046 16.1881C11.9359 15.9427 11.4785 15.495 11.2211 14.9316C10.9637 14.3682 10.9246 13.7293 11.1114 13.1387L4.39336 10.0187C4.06079 10.4063 3.61751 10.6827 3.12314 10.8108C2.62877 10.9389 2.10702 10.9125 1.6281 10.7352C1.14917 10.5579 0.736035 10.2381 0.444266 9.81898C0.152498 9.39984 -0.00390625 8.90139 -0.00390625 8.39069C-0.00390625 7.88 0.152498 7.38155 0.444266 6.96241C0.736035 6.54326 1.14917 6.22353 1.6281 6.04622C2.10702 5.8689 2.62877 5.84252 3.12314 5.97061C3.61751 6.0987 4.06079 6.37512 4.39336 6.7627L11.1114 3.6427C11.0349 3.39936 10.9961 3.14576 10.9964 2.8907Z" fill="#333333"/>
</g>
<defs>
<clipPath id="clip0_425_10914">
<rect width="16" height="16" fill="white" transform="translate(0 0.395264)"/>
</clipPath>
</defs>
</svg>
