<svg width="28" height="29" viewBox="0 0 28 29" fill="none" xmlns="http://www.w3.org/2000/svg">
<path d="M23.8023 4.46654C21.1879 1.83884 17.702 0.395264 13.99 0.395264C6.34639 0.395264 0.119743 6.62192 0.113091 14.2655C0.113091 16.7136 0.751721 19.0952 1.96246 21.204L0 28.3953L7.35755 26.4661C9.38653 27.5704 11.6683 28.1558 13.99 28.1558H13.9966C21.6403 28.1558 27.8669 21.9291 27.8736 14.2788C27.8669 10.5735 26.4233 7.08759 23.8023 4.46654ZM13.99 25.8075C11.9144 25.8075 9.88546 25.2487 8.11593 24.1976L7.69683 23.9448L3.33285 25.089L4.49702 20.8315L4.22427 20.3924C3.06676 18.5563 2.46139 16.4342 2.46139 14.2589C2.46139 7.91249 7.63695 2.73691 13.9966 2.73691C17.0767 2.73691 19.9705 3.941 22.1525 6.11634C24.3278 8.29833 25.5253 11.1921 25.5253 14.2722C25.5186 20.6386 20.343 25.8075 13.99 25.8075ZM20.3164 17.1726C19.9705 16.9997 18.2675 16.1615 17.9482 16.0417C17.6289 15.9286 17.396 15.8688 17.1698 16.2147C16.937 16.5606 16.2718 17.3456 16.0722 17.5718C15.8726 17.8046 15.6664 17.8312 15.3205 17.6583C14.9745 17.4853 13.8569 17.1194 12.5331 15.9353C11.502 15.0173 10.8101 13.8797 10.6039 13.5338C10.4044 13.1879 10.584 13.0016 10.7569 12.8286C10.9099 12.6756 11.1029 12.4228 11.2758 12.2233C11.4488 12.0237 11.5086 11.8773 11.6217 11.6445C11.7348 11.4117 11.6816 11.2121 11.5951 11.0391C11.5086 10.8662 10.8168 9.15649 10.5241 8.46464C10.2447 7.78609 9.95864 7.87923 9.74576 7.87258C9.54619 7.85927 9.31336 7.85927 9.08052 7.85927C8.84769 7.85927 8.47516 7.94575 8.15584 8.29168C7.83653 8.6376 6.9451 9.47581 6.9451 11.1855C6.9451 12.8951 8.1891 14.5383 8.36207 14.7711C8.53503 15.004 10.8035 18.5031 14.2827 20.0066C15.1076 20.3658 15.7529 20.5787 16.2585 20.7383C17.09 21.0044 17.8417 20.9645 18.4405 20.878C19.1057 20.7783 20.4894 20.0398 20.7821 19.2282C21.0681 18.4166 21.0681 17.7248 20.9817 17.5784C20.8952 17.4321 20.6624 17.3456 20.3164 17.1726Z" fill="#333333"/>
</svg>
