<svg width="14" height="15" viewBox="0 0 14 15" fill="none" xmlns="http://www.w3.org/2000/svg">
<path fill-rule="evenodd" clip-rule="evenodd" d="M14 7.31738C14 9.1739 13.2625 10.9544 11.9497 12.2671C10.637 13.5799 8.85652 14.3174 7 14.3174C5.14348 14.3174 3.36301 13.5799 2.05025 12.2671C0.737498 10.9544 0 9.1739 0 7.31738C0 5.46087 0.737498 3.68039 2.05025 2.36764C3.36301 1.05488 5.14348 0.317383 7 0.317383C8.85652 0.317383 10.637 1.05488 11.9497 2.36764C13.2625 3.68039 14 5.46087 14 7.31738ZM7.4375 4.25488C7.4375 4.13885 7.39141 4.02757 7.30936 3.94552C7.22731 3.86348 7.11603 3.81738 7 3.81738C6.88397 3.81738 6.77269 3.86348 6.69064 3.94552C6.60859 4.02757 6.5625 4.13885 6.5625 4.25488V6.87988H3.9375C3.82147 6.87988 3.71019 6.92598 3.62814 7.00802C3.54609 7.09007 3.5 7.20135 3.5 7.31738C3.5 7.43341 3.54609 7.5447 3.62814 7.62674C3.71019 7.70879 3.82147 7.75488 3.9375 7.75488H6.5625V10.3799C6.5625 10.4959 6.60859 10.6072 6.69064 10.6892C6.77269 10.7713 6.88397 10.8174 7 10.8174C7.11603 10.8174 7.22731 10.7713 7.30936 10.6892C7.39141 10.6072 7.4375 10.4959 7.4375 10.3799V7.75488H10.0625C10.1785 7.75488 10.2898 7.70879 10.3719 7.62674C10.4539 7.5447 10.5 7.43341 10.5 7.31738C10.5 7.20135 10.4539 7.09007 10.3719 7.00802C10.2898 6.92598 10.1785 6.87988 10.0625 6.87988H7.4375V4.25488Z" fill="#BDBDBD"/>
</svg>
