<svg width="24" height="25" viewBox="0 0 24 25" fill="none" xmlns="http://www.w3.org/2000/svg">
<path fill-rule="evenodd" clip-rule="evenodd" d="M12 6.31738C12.1989 6.31738 12.3897 6.3964 12.5303 6.53705C12.671 6.67771 12.75 6.86847 12.75 7.06738V11.5674H17.25C17.4489 11.5674 17.6397 11.6464 17.7803 11.7871C17.921 11.9277 18 12.1185 18 12.3174C18 12.5163 17.921 12.7071 17.7803 12.8477C17.6397 12.9884 17.4489 13.0674 17.25 13.0674H12.75V17.5674C12.75 17.7663 12.671 17.9571 12.5303 18.0977C12.3897 18.2384 12.1989 18.3174 12 18.3174C11.8011 18.3174 11.6103 18.2384 11.4697 18.0977C11.329 17.9571 11.25 17.7663 11.25 17.5674V13.0674H6.75C6.55109 13.0674 6.36032 12.9884 6.21967 12.8477C6.07902 12.7071 6 12.5163 6 12.3174C6 12.1185 6.07902 11.9277 6.21967 11.7871C6.36032 11.6464 6.55109 11.5674 6.75 11.5674H11.25V7.06738C11.25 6.86847 11.329 6.67771 11.4697 6.53705C11.6103 6.3964 11.8011 6.31738 12 6.31738Z" fill="white"/>
</svg>
