<svg width="16" height="17" viewBox="0 0 16 17" fill="none" xmlns="http://www.w3.org/2000/svg">
<g clip-path="url(#clip0_2841_4374)">
<path fill-rule="evenodd" clip-rule="evenodd" d="M14 1.93298H2C1.73478 1.93298 1.48043 2.03834 1.29289 2.22588C1.10536 2.41341 1 2.66777 1 2.93298V10.933C1 11.1982 1.10536 11.4526 1.29289 11.6401C1.48043 11.8276 1.73478 11.933 2 11.933H4.5C4.81049 11.933 5.11672 12.0053 5.39443 12.1441C5.67214 12.283 5.91371 12.4846 6.1 12.733L8 15.266L9.9 12.733C10.0863 12.4846 10.3279 12.283 10.6056 12.1441C10.8833 12.0053 11.1895 11.933 11.5 11.933H14C14.2652 11.933 14.5196 11.8276 14.7071 11.6401C14.8946 11.4526 15 11.1982 15 10.933V2.93298C15 2.66777 14.8946 2.41341 14.7071 2.22588C14.5196 2.03834 14.2652 1.93298 14 1.93298ZM2 0.932983C1.46957 0.932983 0.960859 1.1437 0.585786 1.51877C0.210714 1.89384 0 2.40255 0 2.93298L0 10.933C0 11.4634 0.210714 11.9721 0.585786 12.3472C0.960859 12.7223 1.46957 12.933 2 12.933H4.5C4.65525 12.933 4.80836 12.9691 4.94721 13.0386C5.08607 13.108 5.20685 13.2088 5.3 13.333L7.2 15.866C7.29315 15.9902 7.41393 16.091 7.55279 16.1604C7.69164 16.2298 7.84475 16.266 8 16.266C8.15524 16.266 8.30836 16.2298 8.44721 16.1604C8.58607 16.091 8.70685 15.9902 8.8 15.866L10.7 13.333C10.7931 13.2088 10.9139 13.108 11.0528 13.0386C11.1916 12.9691 11.3448 12.933 11.5 12.933H14C14.5304 12.933 15.0391 12.7223 15.4142 12.3472C15.7893 11.9721 16 11.4634 16 10.933V2.93298C16 2.40255 15.7893 1.89384 15.4142 1.51877C15.0391 1.1437 14.5304 0.932983 14 0.932983H2Z" fill="#828282"/>
<path fill-rule="evenodd" clip-rule="evenodd" d="M3 4.43298C3 4.30038 3.05268 4.1732 3.14645 4.07943C3.24021 3.98566 3.36739 3.93298 3.5 3.93298H12.5C12.6326 3.93298 12.7598 3.98566 12.8536 4.07943C12.9473 4.1732 13 4.30038 13 4.43298C13 4.56559 12.9473 4.69277 12.8536 4.78654C12.7598 4.8803 12.6326 4.93298 12.5 4.93298H3.5C3.36739 4.93298 3.24021 4.8803 3.14645 4.78654C3.05268 4.69277 3 4.56559 3 4.43298ZM3 6.93298C3 6.80038 3.05268 6.6732 3.14645 6.57943C3.24021 6.48566 3.36739 6.43298 3.5 6.43298H12.5C12.6326 6.43298 12.7598 6.48566 12.8536 6.57943C12.9473 6.6732 13 6.80038 13 6.93298C13 7.06559 12.9473 7.19277 12.8536 7.28654C12.7598 7.3803 12.6326 7.43298 12.5 7.43298H3.5C3.36739 7.43298 3.24021 7.3803 3.14645 7.28654C3.05268 7.19277 3 7.06559 3 6.93298ZM3 9.43298C3 9.30037 3.05268 9.1732 3.14645 9.07943C3.24021 8.98566 3.36739 8.93298 3.5 8.93298H8.5C8.63261 8.93298 8.75979 8.98566 8.85355 9.07943C8.94732 9.1732 9 9.30037 9 9.43298C9 9.56559 8.94732 9.69277 8.85355 9.78654C8.75979 9.88031 8.63261 9.93298 8.5 9.93298H3.5C3.36739 9.93298 3.24021 9.88031 3.14645 9.78654C3.05268 9.69277 3 9.56559 3 9.43298Z" fill="#333333"/>
</g>
<defs>
<clipPath id="clip0_2841_4374">
<rect width="16" height="16" fill="white" transform="translate(0 0.932983)"/>
</clipPath>
</defs>
</svg>
