<svg width="24" height="25" viewBox="0 0 24 25" fill="none" xmlns="http://www.w3.org/2000/svg">
<path d="M0 4.46649C0 2.25735 1.79086 0.466492 4 0.466492H20C22.2091 0.466492 24 2.25735 24 4.46649V20.4665C24 22.6756 22.2091 24.4665 20 24.4665H4C1.79086 24.4665 0 22.6756 0 20.4665V4.46649Z" fill="#F1F5FC"/>
<path fill-rule="evenodd" clip-rule="evenodd" d="M15.3539 6.1125C15.4005 6.15895 15.4374 6.21412 15.4626 6.27487C15.4878 6.33561 15.5008 6.40073 15.5008 6.4665C15.5008 6.53227 15.4878 6.59739 15.4626 6.65813C15.4374 6.71888 15.4005 6.77405 15.3539 6.8205L9.70692 12.4665L15.3539 18.1125C15.4478 18.2064 15.5005 18.3337 15.5005 18.4665C15.5005 18.5993 15.4478 18.7266 15.3539 18.8205C15.26 18.9144 15.1327 18.9671 14.9999 18.9671C14.8671 18.9671 14.7398 18.9144 14.6459 18.8205L8.64592 12.8205C8.59935 12.7741 8.56241 12.7189 8.5372 12.6581C8.512 12.5974 8.49902 12.5323 8.49902 12.4665C8.49902 12.4007 8.512 12.3356 8.5372 12.2749C8.56241 12.2141 8.59935 12.1589 8.64592 12.1125L14.6459 6.1125C14.6924 6.06594 14.7475 6.02899 14.8083 6.00379C14.869 5.97858 14.9341 5.96561 14.9999 5.96561C15.0657 5.96561 15.1308 5.97858 15.1916 6.00379C15.2523 6.02899 15.3075 6.06594 15.3539 6.1125Z" fill="#828282"/>
</svg>
