<svg width="16" height="17" viewBox="0 0 16 17" fill="none" xmlns="http://www.w3.org/2000/svg">
<g clip-path="url(#clip0_376_3726)">
<path d="M3.33313 10.5H2.66646C2.31284 10.5 1.9737 10.3595 1.72365 10.1095C1.47361 9.85942 1.33313 9.52028 1.33313 9.16666V3.16666C1.33313 2.81304 1.47361 2.4739 1.72365 2.22385C1.9737 1.9738 2.31284 1.83333 2.66646 1.83333H8.66646C9.02009 1.83333 9.35922 1.9738 9.60927 2.22385C9.85932 2.4739 9.9998 2.81304 9.9998 3.16666V3.83333M7.33313 6.5H13.3331C14.0695 6.5 14.6665 7.09695 14.6665 7.83333V13.8333C14.6665 14.5697 14.0695 15.1667 13.3331 15.1667H7.33313C6.59675 15.1667 5.9998 14.5697 5.9998 13.8333V7.83333C5.9998 7.09695 6.59675 6.5 7.33313 6.5Z" stroke="#333333" stroke-width="1.33333" stroke-linecap="round" stroke-linejoin="round"/>
</g>
<defs>
<clipPath id="clip0_376_3726">
<rect width="16" height="16" fill="white" transform="translate(-0.000244141 0.5)"/>
</clipPath>
</defs>
</svg>
