<svg width="28" height="29" viewBox="0 0 28 29" fill="none" xmlns="http://www.w3.org/2000/svg">
<rect x="0.499756" y="1" width="27" height="27" rx="13.5" stroke="#E0E0E0"/>
<g clip-path="url(#clip0_376_3757)">
<path fill-rule="evenodd" clip-rule="evenodd" d="M8.37476 15.925C8.47421 15.925 8.56959 15.9646 8.63992 16.0349C8.71025 16.1052 8.74976 16.2006 8.74976 16.3V18.175C8.74976 18.374 8.82877 18.5647 8.96943 18.7054C9.11008 18.846 9.30084 18.925 9.49976 18.925H18.4998C18.6987 18.925 18.8894 18.846 19.0301 18.7054C19.1707 18.5647 19.2498 18.374 19.2498 18.175V16.3C19.2498 16.2006 19.2893 16.1052 19.3596 16.0349C19.4299 15.9646 19.5253 15.925 19.6248 15.925C19.7242 15.925 19.8196 15.9646 19.8899 16.0349C19.9602 16.1052 19.9998 16.2006 19.9998 16.3V18.175C19.9998 18.5729 19.8417 18.9544 19.5604 19.2357C19.2791 19.517 18.8976 19.675 18.4998 19.675H9.49976C9.10193 19.675 8.7204 19.517 8.4391 19.2357C8.15779 18.9544 7.99976 18.5729 7.99976 18.175V16.3C7.99976 16.2006 8.03926 16.1052 8.10959 16.0349C8.17992 15.9646 8.2753 15.925 8.37476 15.925Z" fill="#333333"/>
<path fill-rule="evenodd" clip-rule="evenodd" d="M13.7347 17.3905C13.7696 17.4254 13.8109 17.4531 13.8565 17.472C13.9021 17.4909 13.9509 17.5007 14.0002 17.5007C14.0496 17.5007 14.0984 17.4909 14.144 17.472C14.1895 17.4531 14.2309 17.4254 14.2657 17.3905L16.5157 15.1405C16.5861 15.0701 16.6257 14.9746 16.6257 14.875C16.6257 14.7754 16.5861 14.6799 16.5157 14.6095C16.4453 14.5391 16.3498 14.4995 16.2502 14.4995C16.1506 14.4995 16.0551 14.5391 15.9847 14.6095L14.3752 16.2198V9.625C14.3752 9.52554 14.3357 9.43016 14.2654 9.35983C14.1951 9.28951 14.0997 9.25 14.0002 9.25C13.9008 9.25 13.8054 9.28951 13.7351 9.35983C13.6647 9.43016 13.6252 9.52554 13.6252 9.625V16.2198L12.0157 14.6095C11.9453 14.5391 11.8498 14.4995 11.7502 14.4995C11.6506 14.4995 11.5551 14.5391 11.4847 14.6095C11.4143 14.6799 11.3748 14.7754 11.3748 14.875C11.3748 14.9746 11.4143 15.0701 11.4847 15.1405L13.7347 17.3905Z" fill="#333333"/>
</g>
<defs>
<clipPath id="clip0_376_3757">
<rect width="12" height="12" fill="white" transform="translate(7.99976 8.5)"/>
</clipPath>
</defs>
</svg>
