<svg width="16" height="17" viewBox="0 0 16 17" fill="none" xmlns="http://www.w3.org/2000/svg">
<path fill-rule="evenodd" clip-rule="evenodd" d="M2 14.433V7.93297H3V14.433C3 14.5656 3.05268 14.6928 3.14645 14.7865C3.24021 14.8803 3.36739 14.933 3.5 14.933H12.5C12.6326 14.933 12.7598 14.8803 12.8536 14.7865C12.9473 14.6928 13 14.5656 13 14.433V7.93297H14V14.433C14 14.8308 13.842 15.2123 13.5607 15.4936C13.2794 15.7749 12.8978 15.933 12.5 15.933H3.5C3.10218 15.933 2.72064 15.7749 2.43934 15.4936C2.15804 15.2123 2 14.8308 2 14.433ZM13 3.43297V6.93297L11 4.93297V3.43297C11 3.30036 11.0527 3.17318 11.1464 3.07941C11.2402 2.98565 11.3674 2.93297 11.5 2.93297H12.5C12.6326 2.93297 12.7598 2.98565 12.8536 3.07941C12.9473 3.17318 13 3.30036 13 3.43297Z" fill="#828282"/>
<path fill-rule="evenodd" clip-rule="evenodd" d="M7.29363 2.43303C7.48116 2.24556 7.73547 2.14024 8.00063 2.14024C8.2658 2.14024 8.5201 2.24556 8.70763 2.43303L15.3546 9.07903C15.4485 9.17292 15.5013 9.30025 15.5013 9.43303C15.5013 9.56581 15.4485 9.69314 15.3546 9.78703C15.2607 9.88092 15.1334 9.93366 15.0006 9.93366C14.8679 9.93366 14.7405 9.88092 14.6466 9.78703L8.00063 3.14003L1.35463 9.78703C1.26074 9.88092 1.13341 9.93366 1.00063 9.93366C0.867856 9.93366 0.740518 9.88092 0.646632 9.78703C0.552745 9.69314 0.5 9.56581 0.5 9.43303C0.5 9.30025 0.552745 9.17292 0.646632 9.07903L7.29363 2.43303Z" fill="#828282"/>
</svg>
