<svg width="26" height="25" viewBox="0 0 26 25" fill="none" xmlns="http://www.w3.org/2000/svg">
<g clip-path="url(#clip0_1154_9047)">
<path d="M15.9719 10.2863C16.0833 10.1752 16.2269 10.102 16.3822 10.0769C16.5375 10.0519 16.6968 10.0763 16.8374 10.1468L24.0029 16.0673V22.8173C24.0029 23.2151 23.8449 23.5967 23.5636 23.878C23.2823 24.1593 22.9008 24.3173 22.5029 24.3173H1.50293C1.1051 24.3173 0.723574 24.1593 0.44227 23.878C0.160965 23.5967 0.00292969 23.2151 0.00292969 22.8173V19.8173L5.47193 13.2863C5.59453 13.1642 5.7556 13.0882 5.92784 13.0712C6.10007 13.0543 6.27287 13.0974 6.41693 13.1933L10.4069 17.3528L15.9719 10.2878V10.2863Z" fill="#BDBDBD"/>
<path fill-rule="evenodd" clip-rule="evenodd" d="M6.75 7.81738C7.74456 7.81738 8.69839 7.42229 9.40165 6.71903C10.1049 6.01577 10.5 5.06194 10.5 4.06738C10.5 3.07282 10.1049 2.11899 9.40165 1.41573C8.69839 0.712471 7.74456 0.317383 6.75 0.317383C5.75544 0.317383 4.80161 0.712471 4.09835 1.41573C3.39509 2.11899 3 3.07282 3 4.06738C3 5.06194 3.39509 6.01577 4.09835 6.71903C4.80161 7.42229 5.75544 7.81738 6.75 7.81738Z" fill="#BDBDBD"/>
</g>
<defs>
<clipPath id="clip0_1154_9047">
<rect width="25.5" height="24" fill="white" transform="translate(0 0.317383)"/>
</clipPath>
</defs>
</svg>
