<svg width="16" height="17" viewBox="0 0 16 17" fill="none" xmlns="http://www.w3.org/2000/svg">
<g clip-path="url(#clip0_1177_5582)">
<path d="M3 0.932968H13C13.5304 0.932968 14.0391 1.14368 14.4142 1.51875C14.7893 1.89383 15 2.40254 15 2.93297V14.933C15 15.4634 14.7893 15.9721 14.4142 16.3472C14.0391 16.7223 13.5304 16.933 13 16.933H3C2.46957 16.933 1.96086 16.7223 1.58579 16.3472C1.21071 15.9721 1 15.4634 1 14.933V13.933H2V14.933C2 15.1982 2.10536 15.4525 2.29289 15.6401C2.48043 15.8276 2.73478 15.933 3 15.933H13C13.2652 15.933 13.5196 15.8276 13.7071 15.6401C13.8946 15.4525 14 15.1982 14 14.933V2.93297C14 2.66775 13.8946 2.4134 13.7071 2.22586C13.5196 2.03832 13.2652 1.93297 13 1.93297H3C2.73478 1.93297 2.48043 2.03832 2.29289 2.22586C2.10536 2.4134 2 2.66775 2 2.93297V3.93297H1V2.93297C1 2.40254 1.21071 1.89383 1.58579 1.51875C1.96086 1.14368 2.46957 0.932968 3 0.932968V0.932968Z" fill="#828282"/>
<path d="M1 5.93297V5.43297C1 5.30036 1.05268 5.17318 1.14645 5.07941C1.24021 4.98565 1.36739 4.93297 1.5 4.93297C1.63261 4.93297 1.75979 4.98565 1.85355 5.07941C1.94732 5.17318 2 5.30036 2 5.43297V5.93297H2.5C2.63261 5.93297 2.75979 5.98565 2.85355 6.07941C2.94732 6.17318 3 6.30036 3 6.43297C3 6.56558 2.94732 6.69275 2.85355 6.78652C2.75979 6.88029 2.63261 6.93297 2.5 6.93297H0.5C0.367392 6.93297 0.240215 6.88029 0.146447 6.78652C0.0526784 6.69275 0 6.56558 0 6.43297C0 6.30036 0.0526784 6.17318 0.146447 6.07941C0.240215 5.98565 0.367392 5.93297 0.5 5.93297H1ZM1 8.93297V8.43297C1 8.30036 1.05268 8.17318 1.14645 8.07941C1.24021 7.98565 1.36739 7.93297 1.5 7.93297C1.63261 7.93297 1.75979 7.98565 1.85355 8.07941C1.94732 8.17318 2 8.30036 2 8.43297V8.93297H2.5C2.63261 8.93297 2.75979 8.98565 2.85355 9.07941C2.94732 9.17318 3 9.30036 3 9.43297C3 9.56558 2.94732 9.69275 2.85355 9.78652C2.75979 9.88029 2.63261 9.93297 2.5 9.93297H0.5C0.367392 9.93297 0.240215 9.88029 0.146447 9.78652C0.0526784 9.69275 0 9.56558 0 9.43297C0 9.30036 0.0526784 9.17318 0.146447 9.07941C0.240215 8.98565 0.367392 8.93297 0.5 8.93297H1ZM1 11.933V11.433C1 11.3004 1.05268 11.1732 1.14645 11.0794C1.24021 10.9856 1.36739 10.933 1.5 10.933C1.63261 10.933 1.75979 10.9856 1.85355 11.0794C1.94732 11.1732 2 11.3004 2 11.433V11.933H2.5C2.63261 11.933 2.75979 11.9856 2.85355 12.0794C2.94732 12.1732 3 12.3004 3 12.433C3 12.5656 2.94732 12.6928 2.85355 12.7865C2.75979 12.8803 2.63261 12.933 2.5 12.933H0.5C0.367392 12.933 0.240215 12.8803 0.146447 12.7865C0.0526784 12.6928 0 12.5656 0 12.433C0 12.3004 0.0526784 12.1732 0.146447 12.0794C0.240215 11.9856 0.367392 11.933 0.5 11.933H1Z" fill="#828282"/>
</g>
<defs>
<clipPath id="clip0_1177_5582">
<rect width="16" height="16" fill="white" transform="translate(0 0.932968)"/>
</clipPath>
</defs>
</svg>
