<svg width="16" height="17" viewBox="0 0 16 17" fill="none" xmlns="http://www.w3.org/2000/svg">
<g clip-path="url(#clip0_1177_5591)">
<path fill-rule="evenodd" clip-rule="evenodd" d="M0.100796 3.15602C-0.0344616 3.66491 -0.0335786 4.20042 0.103357 4.70886C0.240292 5.21731 0.508469 5.68082 0.881007 6.05296C1.25355 6.42509 1.71736 6.69276 2.22595 6.82914C2.73454 6.96553 3.27005 6.96583 3.7788 6.83002L10.1198 13.082C9.98801 13.5297 9.96238 14.0019 10.0449 14.4613C10.1275 14.9206 10.316 15.3543 10.5954 15.7281C10.8748 16.1019 11.2375 16.4054 11.6547 16.6145C12.0719 16.8237 12.5321 16.9327 12.9988 16.933C13.4287 16.9324 13.8535 16.8394 14.2444 16.6603C14.6352 16.4812 14.983 16.2202 15.2642 15.8949C15.5454 15.5696 15.7533 15.1878 15.874 14.7751C15.9947 14.3624 16.0253 13.9287 15.9637 13.5032C15.9021 13.0777 15.7497 12.6704 15.517 12.3089C15.2842 11.9474 14.9765 11.6402 14.6146 11.408C14.2527 11.1758 13.8452 11.0242 13.4196 10.9633C12.994 10.9024 12.5603 10.9337 12.1478 11.055L5.8958 4.71402C6.03227 4.20507 6.03247 3.66919 5.89638 3.16015C5.76029 2.6511 5.4927 2.18681 5.12047 1.81386C4.74823 1.44092 4.28445 1.17245 3.77567 1.03539C3.26688 0.898333 2.731 0.897514 2.2218 1.03302L4.3628 3.17502L3.9988 4.93302L2.2418 5.29702L0.100796 3.15602ZM13.4708 12.175L12.9988 11.933L12.5278 12.175L11.9988 12.201L11.7118 12.646L11.2668 12.933L11.2408 13.462L10.9988 13.933L11.2408 14.404L11.2668 14.933L11.7118 15.22L11.9988 15.665L12.5278 15.691L12.9988 15.933L13.4698 15.691L13.9988 15.665L14.2858 15.22L14.7308 14.933L14.7568 14.404L14.9988 13.933L14.7568 13.462L14.7308 12.933L14.2858 12.646L13.9988 12.201L13.4698 12.175H13.4708Z" fill="#828282"/>
</g>
<defs>
<clipPath id="clip0_1177_5591">
<rect width="16" height="16" fill="white" transform="translate(0 0.932968)"/>
</clipPath>
</defs>
</svg>
