<svg width="16" height="17" viewBox="0 0 16 17" fill="none" xmlns="http://www.w3.org/2000/svg">
<g clip-path="url(#clip0_2728_741)">
<path fill-rule="evenodd" clip-rule="evenodd" d="M2 1.93297H14C14.2652 1.93297 14.5196 2.03832 14.7071 2.22586C14.8946 2.4134 15 2.66775 15 2.93297V14.933C15 15.1982 14.8946 15.4525 14.7071 15.6401C14.5196 15.8276 14.2652 15.933 14 15.933H2C1.73478 15.933 1.48043 15.8276 1.29289 15.6401C1.10536 15.4525 1 15.1982 1 14.933V2.93297C1 2.66775 1.10536 2.4134 1.29289 2.22586C1.48043 2.03832 1.73478 1.93297 2 1.93297ZM14 0.932968C14.5304 0.932968 15.0391 1.14368 15.4142 1.51875C15.7893 1.89383 16 2.40254 16 2.93297V14.933C16 15.4634 15.7893 15.9721 15.4142 16.3472C15.0391 16.7223 14.5304 16.933 14 16.933H2C1.46957 16.933 0.960859 16.7223 0.585786 16.3472C0.210714 15.9721 0 15.4634 0 14.933V2.93297C0 2.40254 0.210714 1.89383 0.585786 1.51875C0.960859 1.14368 1.46957 0.932968 2 0.932968L14 0.932968Z" fill="#828282"/>
<path fill-rule="evenodd" clip-rule="evenodd" d="M5 15.933V1.93297H4V15.933H5ZM13 4.43297C13 4.30036 12.9473 4.17318 12.8536 4.07941C12.7598 3.98565 12.6326 3.93297 12.5 3.93297H7.5C7.36739 3.93297 7.24021 3.98565 7.14645 4.07941C7.05268 4.17318 7 4.30036 7 4.43297C7 4.56558 7.05268 4.69275 7.14645 4.78652C7.24021 4.88029 7.36739 4.93297 7.5 4.93297H12.5C12.6326 4.93297 12.7598 4.88029 12.8536 4.78652C12.9473 4.69275 13 4.56558 13 4.43297ZM13 7.43297C13 7.30036 12.9473 7.17318 12.8536 7.07941C12.7598 6.98565 12.6326 6.93297 12.5 6.93297H7.5C7.36739 6.93297 7.24021 6.98565 7.14645 7.07941C7.05268 7.17318 7 7.30036 7 7.43297C7 7.56558 7.05268 7.69275 7.14645 7.78652C7.24021 7.88029 7.36739 7.93297 7.5 7.93297H12.5C12.6326 7.93297 12.7598 7.88029 12.8536 7.78652C12.9473 7.69275 13 7.56558 13 7.43297ZM13 10.433C13 10.3004 12.9473 10.1732 12.8536 10.0794C12.7598 9.98565 12.6326 9.93297 12.5 9.93297H7.5C7.36739 9.93297 7.24021 9.98565 7.14645 10.0794C7.05268 10.1732 7 10.3004 7 10.433C7 10.5656 7.05268 10.6928 7.14645 10.7865C7.24021 10.8803 7.36739 10.933 7.5 10.933H12.5C12.6326 10.933 12.7598 10.8803 12.8536 10.7865C12.9473 10.6928 13 10.5656 13 10.433ZM13 13.433C13 13.3004 12.9473 13.1732 12.8536 13.0794C12.7598 12.9856 12.6326 12.933 12.5 12.933H7.5C7.36739 12.933 7.24021 12.9856 7.14645 13.0794C7.05268 13.1732 7 13.3004 7 13.433C7 13.5656 7.05268 13.6928 7.14645 13.7865C7.24021 13.8803 7.36739 13.933 7.5 13.933H12.5C12.6326 13.933 12.7598 13.8803 12.8536 13.7865C12.9473 13.6928 13 13.5656 13 13.433Z" fill="#828282"/>
</g>
<defs>
<clipPath id="clip0_2728_741">
<rect width="16" height="16" fill="white" transform="translate(0 0.932968)"/>
</clipPath>
</defs>
</svg>
