<svg width="24" height="25" viewBox="0 0 24 25" fill="none" xmlns="http://www.w3.org/2000/svg">
<g clip-path="url(#clip0_2598_6509)">
<path d="M8.25 8.56738C8.44891 8.56738 8.63968 8.6464 8.78033 8.78705C8.92098 8.92771 9 9.11847 9 9.31738V18.3174C9 18.5163 8.92098 18.7071 8.78033 18.8477C8.63968 18.9884 8.44891 19.0674 8.25 19.0674C8.05109 19.0674 7.86032 18.9884 7.71967 18.8477C7.57902 18.7071 7.5 18.5163 7.5 18.3174V9.31738C7.5 9.11847 7.57902 8.92771 7.71967 8.78705C7.86032 8.6464 8.05109 8.56738 8.25 8.56738ZM12 8.56738C12.1989 8.56738 12.3897 8.6464 12.5303 8.78705C12.671 8.92771 12.75 9.11847 12.75 9.31738V18.3174C12.75 18.5163 12.671 18.7071 12.5303 18.8477C12.3897 18.9884 12.1989 19.0674 12 19.0674C11.8011 19.0674 11.6103 18.9884 11.4697 18.8477C11.329 18.7071 11.25 18.5163 11.25 18.3174V9.31738C11.25 9.11847 11.329 8.92771 11.4697 8.78705C11.6103 8.6464 11.8011 8.56738 12 8.56738ZM16.5 9.31738C16.5 9.11847 16.421 8.92771 16.2803 8.78705C16.1397 8.6464 15.9489 8.56738 15.75 8.56738C15.5511 8.56738 15.3603 8.6464 15.2197 8.78705C15.079 8.92771 15 9.11847 15 9.31738V18.3174C15 18.5163 15.079 18.7071 15.2197 18.8477C15.3603 18.9884 15.5511 19.0674 15.75 19.0674C15.9489 19.0674 16.1397 18.9884 16.2803 18.8477C16.421 18.7071 16.5 18.5163 16.5 18.3174V9.31738Z" fill="white"/>
<path fill-rule="evenodd" clip-rule="evenodd" d="M21.75 4.81738C21.75 5.21521 21.592 5.59674 21.3107 5.87804C21.0294 6.15935 20.6478 6.31738 20.25 6.31738H19.5V19.8174C19.5 20.613 19.1839 21.3761 18.6213 21.9387C18.0587 22.5013 17.2956 22.8174 16.5 22.8174H7.5C6.70435 22.8174 5.94129 22.5013 5.37868 21.9387C4.81607 21.3761 4.5 20.613 4.5 19.8174V6.31738H3.75C3.35218 6.31738 2.97064 6.15935 2.68934 5.87804C2.40804 5.59674 2.25 5.21521 2.25 4.81738V3.31738C2.25 2.91956 2.40804 2.53803 2.68934 2.25672C2.97064 1.97542 3.35218 1.81738 3.75 1.81738H9C9 1.41956 9.15804 1.03803 9.43934 0.756723C9.72064 0.475418 10.1022 0.317383 10.5 0.317383L13.5 0.317383C13.8978 0.317383 14.2794 0.475418 14.5607 0.756723C14.842 1.03803 15 1.41956 15 1.81738H20.25C20.6478 1.81738 21.0294 1.97542 21.3107 2.25672C21.592 2.53803 21.75 2.91956 21.75 3.31738V4.81738ZM6.177 6.31738L6 6.40588V19.8174C6 20.2152 6.15804 20.5967 6.43934 20.878C6.72064 21.1593 7.10218 21.3174 7.5 21.3174H16.5C16.8978 21.3174 17.2794 21.1593 17.5607 20.878C17.842 20.5967 18 20.2152 18 19.8174V6.40588L17.823 6.31738H6.177ZM3.75 4.81738V3.31738H20.25V4.81738H3.75Z" fill="white"/>
</g>
<defs>
<clipPath id="clip0_2598_6509">
<rect width="24" height="24" fill="white" transform="translate(0 0.317383)"/>
</clipPath>
</defs>
</svg>
