<svg width="24" height="24" viewBox="0 0 24 24" fill="none" xmlns="http://www.w3.org/2000/svg">
<g clip-path="url(#clip0_1655_1698)">
<path fill-rule="evenodd" clip-rule="evenodd" d="M12 0.000244141C10.0204 0.00645191 8.10822 0.720447 6.609 2.01324C5.46 3.00324 4.6275 4.29324 4.413 5.58774C1.899 6.14274 0 8.33274 0 10.9772C0 14.0492 2.562 16.5002 5.6715 16.5002H11.25V8.56074L8.031 11.7812C7.89017 11.9221 7.69916 12.0012 7.5 12.0012C7.30084 12.0012 7.10983 11.9221 6.969 11.7812C6.82817 11.6404 6.74905 11.4494 6.74905 11.2502C6.74905 11.0511 6.82817 10.8601 6.969 10.7192L11.469 6.21924C11.5387 6.1494 11.6214 6.09398 11.7125 6.05618C11.8037 6.01837 11.9013 5.9989 12 5.9989C12.0987 5.9989 12.1963 6.01837 12.2874 6.05618C12.3786 6.09398 12.4613 6.1494 12.531 6.21924L17.031 10.7192C17.1718 10.8601 17.2509 11.0511 17.2509 11.2502C17.2509 11.4494 17.1718 11.6404 17.031 11.7812C16.8902 11.9221 16.6992 12.0012 16.5 12.0012C16.3008 12.0012 16.1098 11.9221 15.969 11.7812L12.75 8.56074V16.5002H19.032C21.753 16.5002 24 14.3552 24 11.6597C24 9.20574 22.137 7.20624 19.749 6.86874C19.3845 2.99874 16.035 0.000244141 12 0.000244141ZM11.25 21.7502V16.5002H12.75V21.7502C12.75 21.9492 12.671 22.1399 12.5303 22.2806C12.3897 22.4212 12.1989 22.5002 12 22.5002C11.8011 22.5002 11.6103 22.4212 11.4697 22.2806C11.329 22.1399 11.25 21.9492 11.25 21.7502Z" fill="#828282"/>
</g>
<defs>
<clipPath id="clip0_1655_1698">
<rect width="24" height="24" fill="white" transform="translate(0 0.000244141)"/>
</clipPath>
</defs>
</svg>
