<svg width="17" height="16" viewBox="0 0 17 16" fill="none" xmlns="http://www.w3.org/2000/svg">
<path d="M0.75 16L1.87466 11.8913C1.18067 10.6887 0.816 9.32533 0.816667 7.92733C0.818667 3.55667 4.37533 0 8.74532 0C10.866 0.000666667 12.8566 0.826667 14.354 2.32533C15.8506 3.824 16.6746 5.816 16.674 7.93467C16.672 12.306 13.1153 15.8627 8.74532 15.8627C7.41865 15.862 6.11132 15.5293 4.95332 14.8973L0.75 16ZM5.14799 13.462C6.26532 14.1253 7.33198 14.5227 8.74265 14.5233C12.3746 14.5233 15.3333 11.5673 15.3353 7.93333C15.3366 4.292 12.392 1.34 8.74798 1.33867C5.11332 1.33867 2.15666 4.29467 2.15533 7.928C2.15466 9.41133 2.58933 10.522 3.31933 11.684L2.65333 14.116L5.14799 13.462ZM12.7393 9.81933C12.69 9.73667 12.558 9.68733 12.3593 9.588C12.1613 9.48867 11.1873 9.00933 11.0053 8.94333C10.824 8.87733 10.692 8.844 10.5593 9.04267C10.4273 9.24067 10.0473 9.68733 9.93198 9.81933C9.81665 9.95133 9.70065 9.968 9.50265 9.86867C9.30465 9.76933 8.66598 9.56067 7.90932 8.88533C7.32065 8.36 6.92265 7.71133 6.80732 7.51267C6.69199 7.31467 6.79532 7.20733 6.89399 7.10867C6.98332 7.02 7.09199 6.87733 7.19132 6.76133C7.29199 6.64667 7.32465 6.564 7.39132 6.43133C7.45732 6.29933 7.42465 6.18333 7.37465 6.084C7.32465 5.98533 6.92865 5.01 6.76399 4.61333C6.60265 4.22733 6.43932 4.27933 6.31799 4.27333L5.93799 4.26667C5.80599 4.26667 5.59132 4.316 5.40999 4.51467C5.22866 4.71333 4.71666 5.192 4.71666 6.16733C4.71666 7.14267 5.42666 8.08467 5.52532 8.21667C5.62466 8.34867 6.92199 10.35 8.90932 11.208C9.38198 11.412 9.75131 11.534 10.0386 11.6253C10.5133 11.776 10.9453 11.7547 11.2866 11.704C11.6673 11.6473 12.4586 11.2247 12.624 10.762C12.7893 10.2987 12.7893 9.902 12.7393 9.81933Z" fill="#333333"/>
</svg>
