<svg width="26" height="27" viewBox="0 0 26 27" fill="none" xmlns="http://www.w3.org/2000/svg">
<rect y="0.5" width="26" height="26" rx="4" fill="#106EEA"/>
<g clip-path="url(#clip0_2019_442)">
<path d="M13 20.5C13.4641 20.5 13.9092 20.3157 14.2374 19.9875C14.5656 19.6593 14.75 19.2142 14.75 18.75H11.25C11.25 19.2142 11.4344 19.6593 11.7626 19.9875C12.0908 20.3157 12.5359 20.5 13 20.5ZM13 8.17828L12.3026 8.31916C11.5116 8.48033 10.8005 8.90987 10.2898 9.53508C9.7791 10.1603 9.50009 10.9427 9.5 11.75C9.5 12.2995 9.38275 13.6724 9.09837 15.0243C8.95837 15.6954 8.76937 16.3945 8.51825 17H17.4817C17.2306 16.3945 17.0425 15.6963 16.9016 15.0243C16.6172 13.6724 16.5 12.2995 16.5 11.75C16.4997 10.9429 16.2206 10.1606 15.7099 9.53561C15.1992 8.91059 14.4883 8.48118 13.6974 8.32003L13 8.17828ZM18.4425 17C18.6376 17.3912 18.8634 17.7009 19.125 17.875H6.875C7.13662 17.7009 7.36237 17.3912 7.5575 17C8.345 15.425 8.625 12.52 8.625 11.75C8.625 9.63253 10.13 7.86503 12.1294 7.46166C12.1172 7.33999 12.1306 7.21712 12.1688 7.10096C12.207 6.9848 12.2691 6.87794 12.3511 6.78726C12.4332 6.69658 12.5333 6.6241 12.645 6.5745C12.7568 6.5249 12.8777 6.49927 13 6.49927C13.1223 6.49927 13.2432 6.5249 13.355 6.5745C13.4667 6.6241 13.5668 6.69658 13.6489 6.78726C13.7309 6.87794 13.793 6.9848 13.8312 7.10096C13.8694 7.21712 13.8828 7.33999 13.8706 7.46166C14.8596 7.66282 15.7487 8.1996 16.3873 8.9811C17.026 9.76259 17.3749 10.7408 17.375 11.75C17.375 12.52 17.655 15.425 18.4425 17Z" fill="white"/>
</g>
<defs>
<clipPath id="clip0_2019_442">
<rect width="14" height="14" fill="white" transform="translate(6 6.5)"/>
</clipPath>
</defs>
</svg>
