<svg width="22" height="22" viewBox="0 0 22 22" fill="none" xmlns="http://www.w3.org/2000/svg">
<path fill-rule="evenodd" clip-rule="evenodd" d="M1.375 11.0002C1.375 10.8179 1.44743 10.643 1.57636 10.5141C1.7053 10.3851 1.88016 10.3127 2.0625 10.3127H18.2779L13.9508 5.98695C13.8217 5.85785 13.7491 5.68276 13.7491 5.5002C13.7491 5.31763 13.8217 5.14254 13.9508 5.01345C14.0798 4.88435 14.2549 4.81183 14.4375 4.81183C14.6201 4.81183 14.7952 4.88435 14.9242 5.01345L20.4242 10.5134C20.4883 10.5773 20.5391 10.6532 20.5737 10.7367C20.6084 10.8202 20.6262 10.9098 20.6262 11.0002C20.6262 11.0906 20.6084 11.1802 20.5737 11.2637C20.5391 11.3472 20.4883 11.4231 20.4242 11.4869L14.9242 16.9869C14.7952 17.116 14.6201 17.1886 14.4375 17.1886C14.2549 17.1886 14.0798 17.116 13.9508 16.9869C13.8217 16.8579 13.7491 16.6828 13.7491 16.5002C13.7491 16.3176 13.8217 16.1425 13.9508 16.0134L18.2779 11.6877H2.0625C1.88016 11.6877 1.7053 11.6153 1.57636 11.4863C1.44743 11.3574 1.375 11.1825 1.375 11.0002Z" fill="white"/>
</svg>
