<svg width="22" height="23" viewBox="0 0 22 23" fill="none" xmlns="http://www.w3.org/2000/svg">
<g clip-path="url(#clip0_1834_4074)">
<path fill-rule="evenodd" clip-rule="evenodd" d="M11.0001 4.625C9.51418 4.62557 8.06847 5.10753 6.87947 5.99868C5.69048 6.88983 4.8222 8.14221 4.40469 9.56823C3.98718 10.9943 4.04291 12.5172 4.56353 13.9089C5.08416 15.3006 6.04165 16.4861 7.2926 17.288C8.54355 18.0898 10.0206 18.4648 11.5026 18.3568C12.9845 18.2488 14.3916 17.6635 15.513 16.6887C16.6345 15.7139 17.4099 14.402 17.7232 12.9495C18.0365 11.497 17.8707 9.98215 17.2508 8.63175C17.1833 8.46757 17.182 8.28365 17.247 8.11849C17.3121 7.95333 17.4385 7.81973 17.5998 7.74565C17.7611 7.67157 17.9448 7.66275 18.1125 7.72104C18.2801 7.77933 18.4187 7.90021 18.4993 8.05838C19.2432 9.67893 19.442 11.4969 19.0659 13.2399C18.6899 14.9829 17.7592 16.5572 16.4133 17.7269C15.0675 18.8966 13.3789 19.5988 11.6004 19.7282C9.82203 19.8577 8.04953 19.4075 6.54846 18.445C5.04739 17.4826 3.89855 16.0597 3.27402 14.3895C2.6495 12.7193 2.58291 10.8917 3.08423 9.18053C3.58556 7.46933 4.6278 5.96661 6.05485 4.89746C7.4819 3.82832 9.21694 3.2503 11.0001 3.25V4.625Z" fill="#333333"/>
<path d="M11 6.64087V1.23437C11 1.16905 11.0187 1.10509 11.0537 1.04998C11.0888 0.994872 11.1388 0.950892 11.198 0.923191C11.2571 0.89549 11.3229 0.885216 11.3877 0.893571C11.4525 0.901926 11.5136 0.928565 11.5637 0.970368L14.8088 3.67362C14.9738 3.81112 14.9738 4.06412 14.8088 4.20162L11.5637 6.90487C11.5136 6.94667 11.4525 6.97331 11.3877 6.98167C11.3229 6.99002 11.2571 6.97975 11.198 6.95205C11.1388 6.92435 11.0888 6.88036 11.0537 6.82525C11.0187 6.77014 11 6.70619 11 6.64087Z" fill="#333333"/>
</g>
<defs>
<clipPath id="clip0_1834_4074">
<rect width="22" height="22" fill="white" transform="translate(0 0.5)"/>
</clipPath>
</defs>
</svg>
