<svg width="25" height="24" viewBox="0 0 25 24" fill="none" xmlns="http://www.w3.org/2000/svg">
<g clip-path="url(#clip0_914_6590)">
<path fill-rule="evenodd" clip-rule="evenodd" d="M5.5 0C5.69891 0 5.88968 0.0790176 6.03033 0.21967C6.17098 0.360322 6.25 0.551088 6.25 0.75V1.5H18.25V0.75C18.25 0.551088 18.329 0.360322 18.4697 0.21967C18.6103 0.0790176 18.8011 0 19 0C19.1989 0 19.3897 0.0790176 19.5303 0.21967C19.671 0.360322 19.75 0.551088 19.75 0.75V1.5H21.25C22.0456 1.5 22.8087 1.81607 23.3713 2.37868C23.9339 2.94129 24.25 3.70435 24.25 4.5V21C24.25 21.7956 23.9339 22.5587 23.3713 23.1213C22.8087 23.6839 22.0456 24 21.25 24H3.25C2.45435 24 1.69129 23.6839 1.12868 23.1213C0.566071 22.5587 0.25 21.7956 0.25 21V4.5C0.25 3.70435 0.566071 2.94129 1.12868 2.37868C1.69129 1.81607 2.45435 1.5 3.25 1.5H4.75V0.75C4.75 0.551088 4.82902 0.360322 4.96967 0.21967C5.11032 0.0790176 5.30109 0 5.5 0V0ZM3.25 3C2.85218 3 2.47064 3.15804 2.18934 3.43934C1.90804 3.72064 1.75 4.10218 1.75 4.5V21C1.75 21.3978 1.90804 21.7794 2.18934 22.0607C2.47064 22.342 2.85218 22.5 3.25 22.5H21.25C21.6478 22.5 22.0294 22.342 22.3107 22.0607C22.592 21.7794 22.75 21.3978 22.75 21V4.5C22.75 4.10218 22.592 3.72064 22.3107 3.43934C22.0294 3.15804 21.6478 3 21.25 3H3.25Z" fill="#0090FF"/>
<path d="M4 6C4 5.80109 4.07902 5.61032 4.21967 5.46967C4.36032 5.32902 4.55109 5.25 4.75 5.25H19.75C19.9489 5.25 20.1397 5.32902 20.2803 5.46967C20.421 5.61032 20.5 5.80109 20.5 6V7.5C20.5 7.69891 20.421 7.88968 20.2803 8.03033C20.1397 8.17098 19.9489 8.25 19.75 8.25H4.75C4.55109 8.25 4.36032 8.17098 4.21967 8.03033C4.07902 7.88968 4 7.69891 4 7.5V6Z" fill="#0090FF"/>
<path fill-rule="evenodd" clip-rule="evenodd" d="M16.5308 12.2189C16.6007 12.2885 16.6561 12.3713 16.6939 12.4624C16.7317 12.5535 16.7512 12.6512 16.7512 12.7499C16.7512 12.8485 16.7317 12.9462 16.6939 13.0373C16.6561 13.1284 16.6007 13.2112 16.5308 13.2809L12.0308 17.7809C11.9612 17.8507 11.8784 17.9061 11.7873 17.9439C11.6962 17.9818 11.5985 18.0012 11.4998 18.0012C11.4012 18.0012 11.3035 17.9818 11.2124 17.9439C11.1213 17.9061 11.0385 17.8507 10.9688 17.7809L8.71885 15.5309C8.64912 15.4611 8.5938 15.3784 8.55606 15.2873C8.51833 15.1961 8.4989 15.0985 8.4989 14.9999C8.4989 14.9013 8.51833 14.8036 8.55606 14.7125C8.5938 14.6214 8.64912 14.5386 8.71885 14.4689C8.85968 14.328 9.05069 14.2489 9.24985 14.2489C9.34846 14.2489 9.44612 14.2684 9.53722 14.3061C9.62833 14.3438 9.71112 14.3991 9.78085 14.4689L11.4998 16.1894L15.4688 12.2189C15.5385 12.149 15.6213 12.0936 15.7124 12.0558C15.8035 12.018 15.9012 11.9985 15.9998 11.9985C16.0985 11.9985 16.1962 12.018 16.2873 12.0558C16.3784 12.0936 16.4612 12.149 16.5308 12.2189Z" fill="#0090FF"/>
</g>
<defs>
<clipPath id="clip0_914_6590">
<rect width="24" height="24" fill="white" transform="translate(0.25)"/>
</clipPath>
</defs>
</svg>
