<svg width="14" height="14" viewBox="0 0 14 14" fill="none" xmlns="http://www.w3.org/2000/svg">
<path d="M9.29678 5.85156C9.29678 5.75003 9.33712 5.65266 9.40891 5.58087C9.4807 5.50908 9.57807 5.46875 9.6796 5.46875H10.4452C10.5467 5.46875 10.6441 5.50908 10.7159 5.58087C10.7877 5.65266 10.828 5.75003 10.828 5.85156V6.61719C10.828 6.71872 10.7877 6.81609 10.7159 6.88788C10.6441 6.95967 10.5467 7 10.4452 7H9.6796C9.57807 7 9.4807 6.95967 9.40891 6.88788C9.33712 6.81609 9.29678 6.71872 9.29678 6.61719V5.85156Z" fill="#526071"/>
<path d="M3.55469 0.875C3.65622 0.875 3.75359 0.915332 3.82538 0.987123C3.89717 1.05891 3.9375 1.15628 3.9375 1.25781V1.64062H10.0625V1.25781C10.0625 1.15628 10.1028 1.05891 10.1746 0.987123C10.2464 0.915332 10.3438 0.875 10.4453 0.875C10.5468 0.875 10.6442 0.915332 10.716 0.987123C10.7878 1.05891 10.8281 1.15628 10.8281 1.25781V1.64062H11.5938C11.9999 1.64062 12.3893 1.80195 12.6765 2.08912C12.9637 2.37628 13.125 2.76576 13.125 3.17188V11.5938C13.125 11.9999 12.9637 12.3893 12.6765 12.6765C12.3893 12.9637 11.9999 13.125 11.5938 13.125H2.40625C2.00014 13.125 1.61066 12.9637 1.32349 12.6765C1.03633 12.3893 0.875 11.9999 0.875 11.5938V3.17188C0.875 2.76576 1.03633 2.37628 1.32349 2.08912C1.61066 1.80195 2.00014 1.64062 2.40625 1.64062H3.17188V1.25781C3.17188 1.15628 3.21221 1.05891 3.284 0.987123C3.35579 0.915332 3.45316 0.875 3.55469 0.875ZM1.64062 3.9375V11.5938C1.64062 11.7968 1.72129 11.9915 1.86487 12.1351C2.00845 12.2787 2.20319 12.3594 2.40625 12.3594H11.5938C11.7968 12.3594 11.9915 12.2787 12.1351 12.1351C12.2787 11.9915 12.3594 11.7968 12.3594 11.5938V3.9375H1.64062Z" fill="#526071"/>
</svg>
