<svg width="25" height="24" viewBox="0 0 25 24" fill="none" xmlns="http://www.w3.org/2000/svg">
<g clip-path="url(#clip0_914_6582)">
<path fill-rule="evenodd" clip-rule="evenodd" d="M22.5 4.5H3C2.80109 4.5 2.61032 4.57902 2.46967 4.71967C2.32902 4.86032 2.25 5.05109 2.25 5.25V18.75C2.25 18.9489 2.32902 19.1397 2.46967 19.2803C2.61032 19.421 2.80109 19.5 3 19.5H22.5C22.6989 19.5 22.8897 19.421 23.0303 19.2803C23.171 19.1397 23.25 18.9489 23.25 18.75V5.25C23.25 5.05109 23.171 4.86032 23.0303 4.71967C22.8897 4.57902 22.6989 4.5 22.5 4.5ZM3 3C2.40326 3 1.83097 3.23705 1.40901 3.65901C0.987053 4.08097 0.75 4.65326 0.75 5.25L0.75 18.75C0.75 19.3467 0.987053 19.919 1.40901 20.341C1.83097 20.7629 2.40326 21 3 21H22.5C23.0967 21 23.669 20.7629 24.091 20.341C24.5129 19.919 24.75 19.3467 24.75 18.75V5.25C24.75 4.65326 24.5129 4.08097 24.091 3.65901C23.669 3.23705 23.0967 3 22.5 3H3Z" fill="#0090FF"/>
<path fill-rule="evenodd" clip-rule="evenodd" d="M11.2501 8.24988C11.2501 8.05096 11.3291 7.8602 11.4697 7.71955C11.6104 7.57889 11.8012 7.49988 12.0001 7.49988H19.5001C19.699 7.49988 19.8897 7.57889 20.0304 7.71955C20.1711 7.8602 20.2501 8.05096 20.2501 8.24988C20.2501 8.44879 20.1711 8.63955 20.0304 8.78021C19.8897 8.92086 19.699 8.99988 19.5001 8.99988H12.0001C11.8012 8.99988 11.6104 8.92086 11.4697 8.78021C11.3291 8.63955 11.2501 8.44879 11.2501 8.24988ZM9.00607 6.96888C9.07591 7.03854 9.13133 7.12131 9.16914 7.21243C9.20695 7.30354 9.22641 7.40122 9.22641 7.49988C9.22641 7.59853 9.20695 7.69621 9.16914 7.78733C9.13133 7.87844 9.07591 7.96121 9.00607 8.03088L6.75607 10.2809C6.6864 10.3507 6.60364 10.4061 6.51252 10.4439C6.4214 10.4818 6.32372 10.5012 6.22507 10.5012C6.12642 10.5012 6.02874 10.4818 5.93762 10.4439C5.8465 10.4061 5.76374 10.3507 5.69407 10.2809L4.94407 9.53088C4.87434 9.46114 4.81902 9.37836 4.78128 9.28725C4.74354 9.19614 4.72412 9.09849 4.72412 8.99988C4.72412 8.80071 4.80324 8.60971 4.94407 8.46888C5.0849 8.32805 5.27591 8.24893 5.47507 8.24893C5.67423 8.24893 5.86524 8.32805 6.00607 8.46888L6.22507 8.68938L7.94407 6.96888C8.01374 6.89903 8.0965 6.84362 8.18762 6.80581C8.27874 6.768 8.37642 6.74854 8.47507 6.74854C8.57372 6.74854 8.6714 6.768 8.76252 6.80581C8.85364 6.84362 8.9364 6.89903 9.00607 6.96888ZM11.2501 14.2499C11.2501 14.051 11.3291 13.8602 11.4697 13.7195C11.6104 13.5789 11.8012 13.4999 12.0001 13.4999H19.5001C19.699 13.4999 19.8897 13.5789 20.0304 13.7195C20.1711 13.8602 20.2501 14.051 20.2501 14.2499C20.2501 14.4488 20.1711 14.6396 20.0304 14.7802C19.8897 14.9209 19.699 14.9999 19.5001 14.9999H12.0001C11.8012 14.9999 11.6104 14.9209 11.4697 14.7802C11.3291 14.6396 11.2501 14.4488 11.2501 14.2499ZM9.00607 12.9689C9.07591 13.0385 9.13133 13.1213 9.16914 13.2124C9.20695 13.3035 9.22641 13.4012 9.22641 13.4999C9.22641 13.5985 9.20695 13.6962 9.16914 13.7873C9.13133 13.8784 9.07591 13.9612 9.00607 14.0309L6.75607 16.2809C6.6864 16.3507 6.60364 16.4061 6.51252 16.4439C6.4214 16.4818 6.32372 16.5012 6.22507 16.5012C6.12642 16.5012 6.02874 16.4818 5.93762 16.4439C5.8465 16.4061 5.76374 16.3507 5.69407 16.2809L4.94407 15.5309C4.87434 15.4611 4.81902 15.3784 4.78128 15.2873C4.74354 15.1961 4.72412 15.0985 4.72412 14.9999C4.72412 14.9013 4.74354 14.8036 4.78128 14.7125C4.81902 14.6214 4.87434 14.5386 4.94407 14.4689C5.0138 14.3991 5.09658 14.3438 5.18769 14.3061C5.2788 14.2684 5.37645 14.2489 5.47507 14.2489C5.57368 14.2489 5.67133 14.2684 5.76244 14.3061C5.85355 14.3438 5.93634 14.3991 6.00607 14.4689L6.22507 14.6894L7.94407 12.9689C8.01374 12.899 8.0965 12.8436 8.18762 12.8058C8.27874 12.768 8.37642 12.7485 8.47507 12.7485C8.57372 12.7485 8.6714 12.768 8.76252 12.8058C8.85364 12.8436 8.9364 12.899 9.00607 12.9689Z" fill="#0090FF"/>
</g>
<defs>
<clipPath id="clip0_914_6582">
<rect width="24" height="24" fill="white" transform="translate(0.75)"/>
</clipPath>
</defs>
</svg>
