<svg width="21" height="20" viewBox="0 0 21 20" fill="none" xmlns="http://www.w3.org/2000/svg">
<g clip-path="url(#clip0_425_10483)">
<path fill-rule="evenodd" clip-rule="evenodd" d="M20.7343 10C20.7343 12.6522 19.6807 15.1957 17.8053 17.0711C15.93 18.9464 13.3864 20 10.7343 20C8.08209 20 5.53855 18.9464 3.66319 17.0711C1.78782 15.1957 0.734253 12.6522 0.734253 10C0.734253 7.34784 1.78782 4.8043 3.66319 2.92893C5.53855 1.05357 8.08209 0 10.7343 0C13.3864 0 15.93 1.05357 17.8053 2.92893C19.6807 4.8043 20.7343 7.34784 20.7343 10ZM15.7718 6.2125C15.6825 6.12352 15.5761 6.05347 15.4592 6.00652C15.3422 5.95957 15.2169 5.9367 15.0909 5.93926C14.9649 5.94183 14.8407 5.96979 14.7257 6.02146C14.6107 6.07313 14.5073 6.14746 14.4218 6.24L10.0805 11.7712L7.46425 9.15375C7.28653 8.98815 7.05148 8.898 6.8086 8.90228C6.56572 8.90657 6.33399 9.00496 6.16223 9.17672C5.99046 9.34849 5.89207 9.58022 5.88778 9.8231C5.8835 10.066 5.97365 10.301 6.13925 10.4788L9.44675 13.7875C9.53586 13.8764 9.64196 13.9465 9.75873 13.9936C9.87551 14.0406 10.0006 14.0637 10.1264 14.0613C10.2523 14.059 10.3764 14.0313 10.4914 13.98C10.6063 13.9286 10.7098 13.8547 10.7955 13.7625L15.7855 7.525C15.9556 7.34812 16.0496 7.11159 16.0473 6.8662C16.0449 6.6208 15.9465 6.3861 15.773 6.2125H15.7718Z" fill="#0090FF"/>
</g>
<defs>
<clipPath id="clip0_425_10483">
<rect width="20" height="20" fill="white" transform="translate(0.734253)"/>
</clipPath>
</defs>
</svg>
