<svg width="44" height="44" viewBox="0 0 44 44" fill="none" xmlns="http://www.w3.org/2000/svg">
<rect x="0.5" y="0.5" width="43" height="43" rx="11.5" stroke="#E0E0E0"/>
<path d="M12.7765 12.7765C12.9042 12.6485 13.0559 12.5469 13.223 12.4776C13.39 12.4082 13.5691 12.3726 13.75 12.3726C13.9308 12.3726 14.1099 12.4082 14.277 12.4776C14.444 12.5469 14.5958 12.6485 14.7235 12.7765L22 20.0558L29.2765 12.7765C29.4043 12.6487 29.5561 12.5473 29.7231 12.4781C29.8902 12.4089 30.0692 12.3733 30.25 12.3733C30.4308 12.3733 30.6098 12.4089 30.7768 12.4781C30.9439 12.5473 31.0956 12.6487 31.2235 12.7765C31.3513 12.9044 31.4527 13.0561 31.5219 13.2232C31.5911 13.3902 31.6267 13.5692 31.6267 13.75C31.6267 13.9308 31.5911 14.1098 31.5219 14.2769C31.4527 14.4439 31.3513 14.5957 31.2235 14.7235L23.9442 22L31.2235 29.2765C31.3513 29.4044 31.4527 29.5561 31.5219 29.7232C31.5911 29.8902 31.6267 30.0692 31.6267 30.25C31.6267 30.4308 31.5911 30.6098 31.5219 30.7769C31.4527 30.9439 31.3513 31.0957 31.2235 31.2235C31.0956 31.3514 30.9439 31.4528 30.7768 31.522C30.6098 31.5911 30.4308 31.6268 30.25 31.6268C30.0692 31.6268 29.8902 31.5911 29.7231 31.522C29.5561 31.4528 29.4043 31.3514 29.2765 31.2235L22 23.9443L14.7235 31.2235C14.5956 31.3514 14.4439 31.4528 14.2768 31.522C14.1098 31.5911 13.9308 31.6268 13.75 31.6268C13.5692 31.6268 13.3902 31.5911 13.2231 31.522C13.0561 31.4528 12.9043 31.3514 12.7765 31.2235C12.6486 31.0957 12.5472 30.9439 12.478 30.7769C12.4089 30.6098 12.3732 30.4308 12.3732 30.25C12.3732 30.0692 12.4089 29.8902 12.478 29.7232C12.5472 29.5561 12.6486 29.4044 12.7765 29.2765L20.0557 22L12.7765 14.7235C12.6484 14.5958 12.5468 14.4441 12.4775 14.277C12.4082 14.11 12.3725 13.9309 12.3725 13.75C12.3725 13.5692 12.4082 13.3901 12.4775 13.223C12.5468 13.056 12.6484 12.9042 12.7765 12.7765Z" fill="#828282"/>
</svg>
