<svg width="24" height="21" viewBox="0 0 24 21" fill="none" xmlns="http://www.w3.org/2000/svg">
<path d="M3 0C1.34315 0 0 1.34315 0 3V15L3.87579e-05 15.0154C0.00833997 16.6652 1.34829 18 3 18H11.25C11.6642 18 12 17.6642 12 17.25C12 16.8358 11.6642 16.5 11.25 16.5H3C2.30572 16.5 1.72162 16.0283 1.55065 15.3879L10.0113 10.1814L12 11.3746L22.5 5.07464V9.75C22.5 10.1642 22.8358 10.5 23.25 10.5C23.6642 10.5 24 10.1642 24 9.75V3C24 1.34315 22.6569 0 21 0H3ZM8.56211 9.31191L1.5 13.6578V5.07464L8.56211 9.31191ZM1.5 3.32536V3C1.5 2.17157 2.17157 1.5 3 1.5H21C21.8284 1.5 22.5 2.17157 22.5 3V3.32536L12 9.62536L1.5 3.32536Z" fill="#526071"/>
<path d="M21.3701 18.4029C22.8851 18.4029 23.7508 17.1174 23.7508 15.3663V15.0515C23.7508 12.6446 21.9603 10.5 18.7795 10.5H18.727C15.6315 10.5 13.5 12.5397 13.5 15.6483V15.9697C13.5 19.2292 15.6577 21 18.5368 21H18.6024C19.4944 21 20.1305 20.8885 20.4585 20.7377V19.6424C20.0912 19.8064 19.4485 19.9113 18.6877 19.9113H18.6221C16.6218 19.9113 14.7658 18.7308 14.7658 15.9304V15.6943C14.7658 13.2086 16.3529 11.6084 18.727 11.6084H18.7861C21.0881 11.6084 22.5112 13.1824 22.5112 15.0974V15.2745C22.5112 16.737 22.0259 17.3601 21.5537 17.3601C21.2061 17.3601 20.9372 17.1371 20.9372 16.7305V13.4447H19.5796V14.2973H19.5337C19.4091 13.8513 18.9828 13.3529 18.104 13.3529C16.9366 13.3529 16.2152 14.1858 16.2152 15.4516V16.2452C16.2152 17.5831 16.9497 18.3963 18.104 18.3963C18.8123 18.3963 19.4485 18.0553 19.6255 17.4322H19.6911C19.8682 18.0618 20.6159 18.4029 21.3701 18.4029ZM17.6908 16.0222V15.6811C17.6908 14.8613 18.0319 14.4941 18.55 14.4941C18.9959 14.4941 19.4091 14.7826 19.4091 15.5565V16.1074C19.4091 16.9666 19.0287 17.2224 18.5631 17.2224C18.0319 17.2224 17.6908 16.901 17.6908 16.0222Z" fill="#526071"/>
</svg>
