<svg width="36" height="36" viewBox="0 0 36 36" fill="none" xmlns="http://www.w3.org/2000/svg">
<rect width="36" height="36" rx="8" fill="#F1F5FC"/>
<g clip-path="url(#clip0_725_1119)">
<path d="M27 18.055C27 13.0533 22.9703 8.99878 18 8.99878C13.0275 8.9999 8.99776 13.0533 8.99776 18.0562C8.99776 22.5753 12.2895 26.3215 16.5915 27.001V20.6729H14.3078V18.0562H16.5938V16.0593C16.5938 13.7902 17.9381 12.5369 19.9935 12.5369C20.979 12.5369 22.0084 12.7135 22.0084 12.7135V14.941H20.8733C19.7561 14.941 19.4074 15.6397 19.4074 16.3563V18.055H21.9026L21.5044 20.6718H19.4063V26.9999C23.7083 26.3204 27 22.5742 27 18.055Z" fill="#333333"/>
</g>
<defs>
<clipPath id="clip0_725_1119">
<rect width="18" height="18" fill="white" transform="translate(9 9)"/>
</clipPath>
</defs>
</svg>
