<svg width="32" height="33" viewBox="0 0 32 33" fill="none" xmlns="http://www.w3.org/2000/svg">
<path d="M0 3.87294C0 1.90926 1.59188 0.317383 3.55555 0.317383H28.4444C30.4081 0.317383 32 1.90926 32 3.87294V28.7618C32 30.7255 30.4081 32.3174 28.4444 32.3174H3.55556C1.59188 32.3174 0 30.7255 0 28.7618V3.87294Z" fill="#F2F2F2"/>
<mask id="mask0_1154_7746" style="mask-type:alpha" maskUnits="userSpaceOnUse" x="0" y="0" width="32" height="33">
<rect y="0.317383" width="32" height="32" rx="7.11111" fill="#F1F5FC"/>
</mask>
<g mask="url(#mask0_1154_7746)">
<path d="M16.0001 7.96289C13.7605 7.96289 11.6126 8.85257 10.029 10.4362C8.44534 12.0199 7.55566 14.1677 7.55566 16.4073C7.55566 18.6469 8.44534 20.7948 10.029 22.3785C11.6126 23.9621 13.7605 24.8518 16.0001 24.8518L16.0001 16.4073V7.96289Z" fill="#959EA9"/>
<path d="M15.9999 24.852C18.2395 24.852 20.3874 23.9623 21.971 22.3787C23.5547 20.795 24.4443 18.6472 24.4443 16.4075C24.4443 14.1679 23.5547 12.0201 21.971 10.4364C20.3874 8.85278 18.2395 7.9631 15.9999 7.9631L15.9999 16.4075L15.9999 24.852Z" fill="#BDBDBD"/>
</g>
</svg>
