<svg width="17" height="17" viewBox="0 0 17 17" fill="none" xmlns="http://www.w3.org/2000/svg">
<g clip-path="url(#clip0_2870_4677)">
<path fill-rule="evenodd" clip-rule="evenodd" d="M8.5 1.49976C7.17392 1.49976 5.90215 2.02654 4.96447 2.96422C4.02678 3.9019 3.5 5.17367 3.5 6.49976V10.9998H2.5V6.49976C2.5 5.71182 2.65519 4.93161 2.95672 4.20366C3.25825 3.4757 3.70021 2.81427 4.25736 2.25712C4.81451 1.69996 5.47595 1.25801 6.2039 0.956479C6.93185 0.65495 7.71207 0.499756 8.5 0.499756C9.28793 0.499756 10.0681 0.65495 10.7961 0.956479C11.5241 1.25801 12.1855 1.69996 12.7426 2.25712C13.2998 2.81427 13.7417 3.4757 14.0433 4.20366C14.3448 4.93161 14.5 5.71182 14.5 6.49976V10.9998H13.5V6.49976C13.5 5.84315 13.3707 5.19297 13.1194 4.58634C12.8681 3.97971 12.4998 3.42851 12.0355 2.96422C11.5712 2.49993 11.02 2.13163 10.4134 1.88036C9.80679 1.62908 9.15661 1.49976 8.5 1.49976Z" fill="#0090FF"/>
<path d="M11.5 8.49976C11.5 8.23454 11.6054 7.98019 11.7929 7.79265C11.9804 7.60511 12.2348 7.49976 12.5 7.49976H14.5V11.4998C14.5 11.765 14.3946 12.0193 14.2071 12.2069C14.0196 12.3944 13.7652 12.4998 13.5 12.4998H12.5C12.2348 12.4998 11.9804 12.3944 11.7929 12.2069C11.6054 12.0193 11.5 11.765 11.5 11.4998V8.49976ZM5.5 8.49976C5.5 8.23454 5.39464 7.98019 5.20711 7.79265C5.01957 7.60511 4.76522 7.49976 4.5 7.49976H2.5V11.4998C2.5 11.765 2.60536 12.0193 2.79289 12.2069C2.98043 12.3944 3.23478 12.4998 3.5 12.4998H4.5C4.76522 12.4998 5.01957 12.3944 5.20711 12.2069C5.39464 12.0193 5.5 11.765 5.5 11.4998V8.49976Z" fill="#0090FF"/>
<path fill-rule="evenodd" clip-rule="evenodd" d="M14 8.99976C14.1326 8.99976 14.2598 9.05243 14.3536 9.1462C14.4473 9.23997 14.5 9.36715 14.5 9.49976V12.4998C14.5 13.1628 14.2366 13.7987 13.7678 14.2675C13.2989 14.7364 12.663 14.9998 12 14.9998H8.5C8.36739 14.9998 8.24021 14.9471 8.14645 14.8533C8.05268 14.7595 8 14.6324 8 14.4998C8 14.3671 8.05268 14.24 8.14645 14.1462C8.24021 14.0524 8.36739 13.9998 8.5 13.9998H12C12.3978 13.9998 12.7794 13.8417 13.0607 13.5604C13.342 13.2791 13.5 12.8976 13.5 12.4998V9.49976C13.5 9.36715 13.5527 9.23997 13.6464 9.1462C13.7402 9.05243 13.8674 8.99976 14 8.99976Z" fill="#0090FF"/>
<path d="M7 14.4998C7 14.2345 7.10536 13.9802 7.29289 13.7926C7.48043 13.6051 7.73478 13.4998 8 13.4998H9C9.26522 13.4998 9.51957 13.6051 9.70711 13.7926C9.89464 13.9802 10 14.2345 10 14.4998C10 14.765 9.89464 15.0193 9.70711 15.2069C9.51957 15.3944 9.26522 15.4998 9 15.4998H8C7.73478 15.4998 7.48043 15.3944 7.29289 15.2069C7.10536 15.0193 7 14.765 7 14.4998Z" fill="#0090FF"/>
</g>
<defs>
<clipPath id="clip0_2870_4677">
<rect width="16" height="16" fill="white" transform="translate(0.5 0.499756)"/>
</clipPath>
</defs>
</svg>
