<svg width="251" height="251" viewBox="0 0 251 251" fill="none" xmlns="http://www.w3.org/2000/svg">
<path d="M125.5 250.5C194.536 250.5 250.5 194.536 250.5 125.5C250.5 56.4644 194.536 0.5 125.5 0.5C56.4644 0.5 0.5 56.4644 0.5 125.5C0.5 194.536 56.4644 250.5 125.5 250.5Z" fill="#F1F5FC"/>
<path d="M200.5 250.5H50.5V88.8333C57.57 88.8254 64.3482 86.0134 69.3474 81.0141C74.3467 76.0149 77.1587 69.2367 77.1667 62.1667H173.833C173.826 65.669 174.513 69.138 175.855 72.373C177.197 75.608 179.167 78.5447 181.652 81.0133C184.12 83.4985 187.057 85.4693 190.292 86.8116C193.528 88.154 196.997 88.8411 200.5 88.8333V250.5Z" fill="white"/>
<path d="M125.5 170.5C147.591 170.5 165.5 152.591 165.5 130.5C165.5 108.409 147.591 90.5 125.5 90.5C103.409 90.5 85.5 108.409 85.5 130.5C85.5 152.591 103.409 170.5 125.5 170.5Z" fill="#0090FF"/>
<path d="M139.642 149.356L125.5 135.214L111.358 149.356L106.644 144.642L120.786 130.5L106.644 116.358L111.358 111.644L125.5 125.786L139.642 111.644L144.356 116.358L130.214 130.5L144.356 144.642L139.642 149.356Z" fill="white"/>
<path d="M147.167 180.5H103.833C101.072 180.5 98.8333 182.739 98.8333 185.5C98.8333 188.261 101.072 190.5 103.833 190.5H147.167C149.928 190.5 152.167 188.261 152.167 185.5C152.167 182.739 149.928 180.5 147.167 180.5Z" fill="#F1F5FC"/>
<path d="M162.167 200.5H88.8333C86.0719 200.5 83.8333 202.739 83.8333 205.5C83.8333 208.261 86.0719 210.5 88.8333 210.5H162.167C164.928 210.5 167.167 208.261 167.167 205.5C167.167 202.739 164.928 200.5 162.167 200.5Z" fill="#F1F5FC"/>
</svg>
