<svg width="37" height="36" viewBox="0 0 37 36" fill="none" xmlns="http://www.w3.org/2000/svg">
<rect x="0.5" width="36" height="36" rx="18" fill="#0090FF"/>
<path d="M13.5611 25V23.0057L18.2209 18.6911C18.6172 18.3075 18.9496 17.9624 19.218 17.6555C19.4908 17.3487 19.6974 17.0483 19.8381 16.7543C19.9787 16.456 20.049 16.1342 20.049 15.7891C20.049 15.4055 19.9616 15.0753 19.7869 14.7983C19.6122 14.517 19.3736 14.3018 19.071 14.1527C18.7685 13.9993 18.4254 13.9226 18.0419 13.9226C17.6413 13.9226 17.2919 14.0036 16.9936 14.1655C16.6953 14.3274 16.4652 14.5597 16.3033 14.8622C16.1413 15.1648 16.0604 15.5249 16.0604 15.9425H13.4332C13.4332 15.0859 13.6271 14.3423 14.0149 13.7116C14.4027 13.081 14.946 12.593 15.6449 12.2479C16.3438 11.9027 17.1491 11.7301 18.0611 11.7301C18.9986 11.7301 19.8146 11.8963 20.5092 12.2287C21.2081 12.5568 21.7514 13.0128 22.1392 13.5966C22.527 14.1804 22.7209 14.8494 22.7209 15.6037C22.7209 16.098 22.6229 16.5859 22.4268 17.0675C22.2351 17.549 21.892 18.0838 21.3977 18.6719C20.9034 19.2557 20.2067 19.9567 19.3075 20.7749L17.3963 22.6477V22.7372H22.8935V25H13.5611Z" fill="white"/>
</svg>
