<svg width="37" height="36" viewBox="0 0 37 36" fill="none" xmlns="http://www.w3.org/2000/svg">
<rect x="0.5" width="36" height="36" rx="18" fill="#0090FF"/>
<path d="M18.3999 25.179C17.4453 25.179 16.5952 25.0149 15.8494 24.6868C15.108 24.3544 14.522 23.8984 14.0916 23.3189C13.6655 22.7351 13.446 22.0618 13.4332 21.299H16.2202C16.2372 21.6186 16.3416 21.8999 16.5334 22.1428C16.7294 22.3814 16.9893 22.5668 17.3132 22.6989C17.6371 22.831 18.0014 22.897 18.4062 22.897C18.8281 22.897 19.201 22.8224 19.5249 22.6733C19.8487 22.5241 20.1023 22.3175 20.2855 22.0533C20.4688 21.7891 20.5604 21.4844 20.5604 21.1392C20.5604 20.7898 20.4624 20.4808 20.2663 20.2124C20.0746 19.9396 19.7976 19.7266 19.4354 19.5732C19.0774 19.4197 18.6513 19.343 18.157 19.343H16.9361V17.3104H18.157C18.5746 17.3104 18.9432 17.2379 19.2628 17.093C19.5866 16.9482 19.8381 16.7479 20.017 16.4922C20.196 16.2322 20.2855 15.9297 20.2855 15.5845C20.2855 15.2564 20.2067 14.9688 20.049 14.7216C19.8956 14.4702 19.6783 14.2741 19.397 14.1335C19.12 13.9929 18.7962 13.9226 18.4254 13.9226C18.0504 13.9226 17.7074 13.9908 17.3963 14.1271C17.0852 14.2592 16.8359 14.4489 16.6484 14.696C16.4609 14.9432 16.3608 15.233 16.348 15.5653H13.6953C13.7081 14.8111 13.9233 14.1463 14.3409 13.571C14.7585 12.9957 15.321 12.5462 16.0284 12.2223C16.7401 11.8942 17.5433 11.7301 18.4382 11.7301C19.3416 11.7301 20.1321 11.8942 20.8097 12.2223C21.4872 12.5504 22.0135 12.9936 22.3885 13.5518C22.7678 14.1058 22.9553 14.728 22.951 15.4183C22.9553 16.1513 22.7273 16.7628 22.267 17.2528C21.8111 17.7429 21.2166 18.054 20.4837 18.1861V18.2884C21.4467 18.4119 22.1797 18.7464 22.6825 19.2919C23.1896 19.8331 23.4411 20.5107 23.4368 21.3246C23.4411 22.0703 23.2259 22.733 22.7912 23.3125C22.3608 23.892 21.7663 24.348 21.0078 24.6804C20.2493 25.0128 19.38 25.179 18.3999 25.179Z" fill="white"/>
</svg>
