<svg width="24" height="24" viewBox="0 0 24 24" fill="none" xmlns="http://www.w3.org/2000/svg">
<path fill-rule="evenodd" clip-rule="evenodd" d="M5.47 1.98536C5.38145 1.87145 5.26968 1.77769 5.14211 1.7103C5.01453 1.64291 4.87408 1.60343 4.73008 1.5945C4.58608 1.58556 4.44182 1.60736 4.3069 1.65846C4.17197 1.70956 4.04946 1.78878 3.9475 1.89086L2.3965 3.44336C1.672 4.16936 1.405 5.19686 1.7215 6.09836C3.03511 9.82974 5.17195 13.2175 7.9735 16.0104C10.7664 18.8119 14.1541 20.9487 17.8855 22.2624C18.787 22.5789 19.8145 22.3119 20.5405 21.5874L22.0915 20.0364C22.1936 19.9344 22.2728 19.8119 22.3239 19.677C22.375 19.542 22.3968 19.3978 22.3879 19.2538C22.3789 19.1098 22.3395 18.9693 22.2721 18.8418C22.2047 18.7142 22.1109 18.6024 21.997 18.5139L18.5365 15.8229C18.4148 15.7285 18.2733 15.663 18.1226 15.6313C17.9718 15.5996 17.8159 15.6025 17.6665 15.6399L14.3815 16.4604C13.943 16.57 13.4836 16.5641 13.0481 16.4435C12.6125 16.3228 12.2156 16.0914 11.896 15.7719L8.212 12.0864C7.89216 11.7669 7.66049 11.3701 7.53957 10.9345C7.41865 10.4989 7.4126 10.0395 7.522 9.60086L8.344 6.31586C8.38136 6.16646 8.38431 6.01052 8.3526 5.85981C8.3209 5.7091 8.25539 5.56756 8.161 5.44586L5.47 1.98536ZM2.815 0.759862C3.0775 0.497287 3.39284 0.293558 3.74011 0.162204C4.08738 0.0308505 4.45862 -0.0251225 4.82917 -0.00199802C5.19973 0.0211264 5.56113 0.122819 5.88937 0.296328C6.21762 0.469836 6.50519 0.71119 6.733 1.00436L9.424 4.46336C9.9175 5.09786 10.0915 5.92436 9.8965 6.70436L9.076 9.98936C9.03358 10.1595 9.03587 10.3377 9.08266 10.5067C9.12944 10.6757 9.21912 10.8298 9.343 10.9539L13.0285 14.6394C13.1528 14.7635 13.307 14.8533 13.4763 14.9001C13.6456 14.9469 13.8241 14.9491 13.9945 14.9064L17.278 14.0859C17.6629 13.9896 18.0647 13.9821 18.4529 14.064C18.8412 14.1459 19.2057 14.3149 19.519 14.5584L22.978 17.2494C24.2215 18.2169 24.3355 20.0544 23.2225 21.1659L21.6715 22.7169C20.5615 23.8269 18.9025 24.3144 17.356 23.7699C13.3978 22.3771 9.80391 20.1111 6.841 17.1399C3.86994 14.1774 1.60392 10.5841 0.211003 6.62636C-0.331997 5.08136 0.155503 3.42086 1.2655 2.31086L2.8165 0.759862H2.815Z" fill="#526071"/>
</svg>
