<svg width="60" height="60" viewBox="0 0 60 60" fill="none" xmlns="http://www.w3.org/2000/svg">
<path d="M0 6.66666C0 2.98476 2.98477 0 6.66667 0H53.3333C57.0152 0 60 2.98477 60 6.66667V53.3333C60 57.0152 57.0152 60 53.3333 60H6.66666C2.98476 60 0 57.0152 0 53.3333V6.66666Z" fill="#F2F2F2"/>
<mask id="mask0_425_10348" style="mask-type:alpha" maskUnits="userSpaceOnUse" x="0" y="0" width="60" height="60">
<rect width="60" height="60" rx="13.3333" fill="#F1F5FC"/>
</mask>
<g mask="url(#mask0_425_10348)">
<path d="M30 14.3353C25.8008 14.3353 21.7735 16.0035 18.8042 18.9728C15.8348 21.9421 14.1667 25.9694 14.1667 30.1687C14.1667 34.3679 15.8348 38.3952 18.8042 41.3645C21.7735 44.3338 25.8008 46.002 30 46.002L30 30.1687V14.3353Z" fill="#959EA9"/>
<path d="M29.9998 46.002C34.1991 46.002 38.2263 44.3339 41.1957 41.3645C44.165 38.3952 45.8331 34.3679 45.8331 30.1687C45.8331 25.9694 44.165 21.9422 41.1957 18.9728C38.2263 16.0035 34.1991 14.3354 29.9998 14.3354L29.9998 30.1687L29.9998 46.002Z" fill="#BDBDBD"/>
</g>
</svg>
