<svg width="44" height="44" viewBox="0 0 44 44" fill="none" xmlns="http://www.w3.org/2000/svg">
<rect width="44" height="44" rx="12" fill="#0090FF"/>
<path fill-rule="evenodd" clip-rule="evenodd" d="M17 28C17 28 16 28 16 27C16 26 17 23 22 23C27 23 28 26 28 27C28 28 27 28 27 28H17ZM22 22C22.7956 22 23.5587 21.6839 24.1213 21.1213C24.6839 20.5587 25 19.7956 25 19C25 18.2044 24.6839 17.4413 24.1213 16.8787C23.5587 16.3161 22.7956 16 22 16C21.2044 16 20.4413 16.3161 19.8787 16.8787C19.3161 17.4413 19 18.2044 19 19C19 19.7956 19.3161 20.5587 19.8787 21.1213C20.4413 21.6839 21.2044 22 22 22Z" fill="white"/>
</svg>
