<svg width="50" height="50" viewBox="0 0 50 50" fill="none" xmlns="http://www.w3.org/2000/svg">
<rect x="0.5" y="0.5" width="49" height="49" rx="11.5" fill="#E2F2FF"/>
<rect x="0.5" y="0.5" width="49" height="49" rx="11.5" stroke="#0090FF"/>
<path fill-rule="evenodd" clip-rule="evenodd" d="M16.25 18.125C16.25 17.6277 16.4475 17.1508 16.7992 16.7992C17.1508 16.4475 17.6277 16.25 18.125 16.25H21.875C22.3723 16.25 22.8492 16.4475 23.2008 16.7992C23.5525 17.1508 23.75 17.6277 23.75 18.125V21.875C23.75 22.3723 23.5525 22.8492 23.2008 23.2008C22.8492 23.5525 22.3723 23.75 21.875 23.75H18.125C17.6277 23.75 17.1508 23.5525 16.7992 23.2008C16.4475 22.8492 16.25 22.3723 16.25 21.875V18.125ZM18.125 17.5C17.9592 17.5 17.8003 17.5658 17.6831 17.6831C17.5658 17.8003 17.5 17.9592 17.5 18.125V21.875C17.5 22.0408 17.5658 22.1997 17.6831 22.3169C17.8003 22.4342 17.9592 22.5 18.125 22.5H21.875C22.0408 22.5 22.1997 22.4342 22.3169 22.3169C22.4342 22.1997 22.5 22.0408 22.5 21.875V18.125C22.5 17.9592 22.4342 17.8003 22.3169 17.6831C22.1997 17.5658 22.0408 17.5 21.875 17.5H18.125ZM26.25 18.125C26.25 17.6277 26.4475 17.1508 26.7992 16.7992C27.1508 16.4475 27.6277 16.25 28.125 16.25H31.875C32.3723 16.25 32.8492 16.4475 33.2008 16.7992C33.5525 17.1508 33.75 17.6277 33.75 18.125V21.875C33.75 22.3723 33.5525 22.8492 33.2008 23.2008C32.8492 23.5525 32.3723 23.75 31.875 23.75H28.125C27.6277 23.75 27.1508 23.5525 26.7992 23.2008C26.4475 22.8492 26.25 22.3723 26.25 21.875V18.125ZM28.125 17.5C27.9592 17.5 27.8003 17.5658 27.6831 17.6831C27.5658 17.8003 27.5 17.9592 27.5 18.125V21.875C27.5 22.0408 27.5658 22.1997 27.6831 22.3169C27.8003 22.4342 27.9592 22.5 28.125 22.5H31.875C32.0408 22.5 32.1997 22.4342 32.3169 22.3169C32.4342 22.1997 32.5 22.0408 32.5 21.875V18.125C32.5 17.9592 32.4342 17.8003 32.3169 17.6831C32.1997 17.5658 32.0408 17.5 31.875 17.5H28.125ZM16.25 28.125C16.25 27.6277 16.4475 27.1508 16.7992 26.7992C17.1508 26.4475 17.6277 26.25 18.125 26.25H21.875C22.3723 26.25 22.8492 26.4475 23.2008 26.7992C23.5525 27.1508 23.75 27.6277 23.75 28.125V31.875C23.75 32.3723 23.5525 32.8492 23.2008 33.2008C22.8492 33.5525 22.3723 33.75 21.875 33.75H18.125C17.6277 33.75 17.1508 33.5525 16.7992 33.2008C16.4475 32.8492 16.25 32.3723 16.25 31.875V28.125ZM18.125 27.5C17.9592 27.5 17.8003 27.5658 17.6831 27.6831C17.5658 27.8003 17.5 27.9592 17.5 28.125V31.875C17.5 32.0408 17.5658 32.1997 17.6831 32.3169C17.8003 32.4342 17.9592 32.5 18.125 32.5H21.875C22.0408 32.5 22.1997 32.4342 22.3169 32.3169C22.4342 32.1997 22.5 32.0408 22.5 31.875V28.125C22.5 27.9592 22.4342 27.8003 22.3169 27.6831C22.1997 27.5658 22.0408 27.5 21.875 27.5H18.125ZM26.25 28.125C26.25 27.6277 26.4475 27.1508 26.7992 26.7992C27.1508 26.4475 27.6277 26.25 28.125 26.25H31.875C32.3723 26.25 32.8492 26.4475 33.2008 26.7992C33.5525 27.1508 33.75 27.6277 33.75 28.125V31.875C33.75 32.3723 33.5525 32.8492 33.2008 33.2008C32.8492 33.5525 32.3723 33.75 31.875 33.75H28.125C27.6277 33.75 27.1508 33.5525 26.7992 33.2008C26.4475 32.8492 26.25 32.3723 26.25 31.875V28.125ZM28.125 27.5C27.9592 27.5 27.8003 27.5658 27.6831 27.6831C27.5658 27.8003 27.5 27.9592 27.5 28.125V31.875C27.5 32.0408 27.5658 32.1997 27.6831 32.3169C27.8003 32.4342 27.9592 32.5 28.125 32.5H31.875C32.0408 32.5 32.1997 32.4342 32.3169 32.3169C32.4342 32.1997 32.5 32.0408 32.5 31.875V28.125C32.5 27.9592 32.4342 27.8003 32.3169 27.6831C32.1997 27.5658 32.0408 27.5 31.875 27.5H28.125Z" fill="#0095FF"/>
</svg>
