<svg width="50" height="50" viewBox="0 0 50 50" fill="none" xmlns="http://www.w3.org/2000/svg">
<rect x="0.5" y="0.5" width="49" height="49" rx="11.5" stroke="#0090FF"/>
<path fill-rule="evenodd" clip-rule="evenodd" d="M18.75 20.625H31.25C31.913 20.625 32.5489 20.8884 33.0178 21.3572C33.4866 21.8261 33.75 22.462 33.75 23.125V26.875C33.75 27.538 33.4866 28.1739 33.0178 28.6428C32.5489 29.1116 31.913 29.375 31.25 29.375H18.75C18.087 29.375 17.4511 29.1116 16.9822 28.6428C16.5134 28.1739 16.25 27.538 16.25 26.875V23.125C16.25 22.462 16.5134 21.8261 16.9822 21.3572C17.4511 20.8884 18.087 20.625 18.75 20.625ZM18.75 21.875C18.4185 21.875 18.1005 22.0067 17.8661 22.2411C17.6317 22.4755 17.5 22.7935 17.5 23.125V26.875C17.5 27.2065 17.6317 27.5245 17.8661 27.7589C18.1005 27.9933 18.4185 28.125 18.75 28.125H31.25C31.5815 28.125 31.8995 27.9933 32.1339 27.7589C32.3683 27.5245 32.5 27.2065 32.5 26.875V23.125C32.5 22.7935 32.3683 22.4755 32.1339 22.2411C31.8995 22.0067 31.5815 21.875 31.25 21.875H18.75ZM16.25 17.5C16.25 17.3342 16.3158 17.1753 16.4331 17.0581C16.5503 16.9408 16.7092 16.875 16.875 16.875H33.125C33.2908 16.875 33.4497 16.9408 33.5669 17.0581C33.6842 17.1753 33.75 17.3342 33.75 17.5C33.75 17.6658 33.6842 17.8247 33.5669 17.9419C33.4497 18.0592 33.2908 18.125 33.125 18.125H16.875C16.7092 18.125 16.5503 18.0592 16.4331 17.9419C16.3158 17.8247 16.25 17.6658 16.25 17.5ZM16.25 32.5C16.25 32.3342 16.3158 32.1753 16.4331 32.0581C16.5503 31.9408 16.7092 31.875 16.875 31.875H33.125C33.2908 31.875 33.4497 31.9408 33.5669 32.0581C33.6842 32.1753 33.75 32.3342 33.75 32.5C33.75 32.6658 33.6842 32.8247 33.5669 32.9419C33.4497 33.0592 33.2908 33.125 33.125 33.125H16.875C16.7092 33.125 16.5503 33.0592 16.4331 32.9419C16.3158 32.8247 16.25 32.6658 16.25 32.5Z" fill="#0095FF"/>
</svg>
