<svg width="16" height="17" viewBox="0 0 16 17" fill="none" xmlns="http://www.w3.org/2000/svg">
<g clip-path="url(#clip0_1597_9518)">
<path fill-rule="evenodd" clip-rule="evenodd" d="M1.92 1.00592C1.99826 0.993169 2.07843 0.999216 2.15389 1.02356C2.22935 1.0479 2.29794 1.08984 2.354 1.14592L3 1.79292L3.646 1.14592C3.69245 1.09935 3.74762 1.06241 3.80837 1.0372C3.86911 1.012 3.93423 0.999023 4 0.999023C4.06577 0.999023 4.13089 1.012 4.19163 1.0372C4.25238 1.06241 4.30755 1.09935 4.354 1.14592L5 1.79292L5.646 1.14592C5.69245 1.09935 5.74762 1.06241 5.80837 1.0372C5.86911 1.012 5.93423 0.999023 6 0.999023C6.06577 0.999023 6.13089 1.012 6.19163 1.0372C6.25238 1.06241 6.30755 1.09935 6.354 1.14592L7 1.79292L7.646 1.14592C7.69245 1.09935 7.74762 1.06241 7.80837 1.0372C7.86911 1.012 7.93423 0.999023 8 0.999023C8.06577 0.999023 8.13089 1.012 8.19163 1.0372C8.25238 1.06241 8.30755 1.09935 8.354 1.14592L9 1.79292L9.646 1.14592C9.69245 1.09935 9.74762 1.06241 9.80837 1.0372C9.86911 1.012 9.93423 0.999023 10 0.999023C10.0658 0.999023 10.1309 1.012 10.1916 1.0372C10.2524 1.06241 10.3076 1.09935 10.354 1.14592L11 1.79292L11.646 1.14592C11.6924 1.09935 11.7476 1.06241 11.8084 1.0372C11.8691 1.012 11.9342 0.999023 12 0.999023C12.0658 0.999023 12.1309 1.012 12.1916 1.0372C12.2524 1.06241 12.3076 1.09935 12.354 1.14592L13 1.79292L13.646 1.14592C13.702 1.08985 13.7706 1.0479 13.846 1.02354C13.9214 0.999177 14.0016 0.993093 14.0798 1.00579C14.158 1.01849 14.2321 1.0496 14.296 1.09657C14.3598 1.14354 14.4116 1.20501 14.447 1.27592L14.947 2.27592C14.9818 2.34545 15 2.42214 15 2.49992V15.4999H14V2.61792L13.863 2.34392L13.353 2.85392C13.2592 2.94765 13.1321 3.00031 12.9995 3.00031C12.8669 3.00031 12.7398 2.94765 12.646 2.85392L12 2.20692L11.354 2.85392C11.3076 2.90048 11.2524 2.93742 11.1916 2.96263C11.1309 2.98784 11.0658 3.00081 11 3.00081C10.9342 3.00081 10.8691 2.98784 10.8084 2.96263C10.7476 2.93742 10.6924 2.90048 10.646 2.85392L10 2.20692L9.354 2.85392C9.30755 2.90048 9.25238 2.93742 9.19163 2.96263C9.13089 2.98784 9.06577 3.00081 9 3.00081C8.93423 3.00081 8.86911 2.98784 8.80837 2.96263C8.74762 2.93742 8.69245 2.90048 8.646 2.85392L8 2.20692L7.354 2.85392C7.30755 2.90048 7.25238 2.93742 7.19163 2.96263C7.13089 2.98784 7.06577 3.00081 7 3.00081C6.93423 3.00081 6.86911 2.98784 6.80837 2.96263C6.74762 2.93742 6.69245 2.90048 6.646 2.85392L6 2.20692L5.354 2.85392C5.30755 2.90048 5.25238 2.93742 5.19163 2.96263C5.13089 2.98784 5.06577 3.00081 5 3.00081C4.93423 3.00081 4.86911 2.98784 4.80837 2.96263C4.74762 2.93742 4.69245 2.90048 4.646 2.85392L4 2.20692L3.354 2.85392C3.30755 2.90048 3.25238 2.93742 3.19163 2.96263C3.13089 2.98784 3.06577 3.00081 3 3.00081C2.93423 3.00081 2.86911 2.98784 2.80837 2.96263C2.74762 2.93742 2.69245 2.90048 2.646 2.85392L2.137 2.34392L2 2.61792V15.4999H1V2.49992C1.00001 2.42214 1.01815 2.34545 1.053 2.27592L1.553 1.27592C1.58841 1.20506 1.64015 1.14363 1.70396 1.09669C1.76777 1.04974 1.84181 1.01863 1.92 1.00592ZM0 15.9999C0 15.8673 0.0526784 15.7401 0.146447 15.6464C0.240215 15.5526 0.367392 15.4999 0.5 15.4999H15.5C15.6326 15.4999 15.7598 15.5526 15.8536 15.6464C15.9473 15.7401 16 15.8673 16 15.9999C16 16.1325 15.9473 16.2597 15.8536 16.3535C15.7598 16.4472 15.6326 16.4999 15.5 16.4999H0.5C0.367392 16.4999 0.240215 16.4472 0.146447 16.3535C0.0526784 16.2597 0 16.1325 0 15.9999Z" fill="#828282"/>
<path fill-rule="evenodd" clip-rule="evenodd" d="M3 5C3 4.86739 3.05268 4.74021 3.14645 4.64645C3.24021 4.55268 3.36739 4.5 3.5 4.5H9.5C9.63261 4.5 9.75979 4.55268 9.85355 4.64645C9.94732 4.74021 10 4.86739 10 5C10 5.13261 9.94732 5.25979 9.85355 5.35355C9.75979 5.44732 9.63261 5.5 9.5 5.5H3.5C3.36739 5.5 3.24021 5.44732 3.14645 5.35355C3.05268 5.25979 3 5.13261 3 5ZM3 7C3 6.86739 3.05268 6.74021 3.14645 6.64645C3.24021 6.55268 3.36739 6.5 3.5 6.5H9.5C9.63261 6.5 9.75979 6.55268 9.85355 6.64645C9.94732 6.74021 10 6.86739 10 7C10 7.13261 9.94732 7.25979 9.85355 7.35355C9.75979 7.44732 9.63261 7.5 9.5 7.5H3.5C3.36739 7.5 3.24021 7.44732 3.14645 7.35355C3.05268 7.25979 3 7.13261 3 7ZM3 9C3 8.86739 3.05268 8.74021 3.14645 8.64645C3.24021 8.55268 3.36739 8.5 3.5 8.5H9.5C9.63261 8.5 9.75979 8.55268 9.85355 8.64645C9.94732 8.74021 10 8.86739 10 9C10 9.13261 9.94732 9.25979 9.85355 9.35355C9.75979 9.44732 9.63261 9.5 9.5 9.5H3.5C3.36739 9.5 3.24021 9.44732 3.14645 9.35355C3.05268 9.25979 3 9.13261 3 9ZM3 11C3 10.8674 3.05268 10.7402 3.14645 10.6464C3.24021 10.5527 3.36739 10.5 3.5 10.5H9.5C9.63261 10.5 9.75979 10.5527 9.85355 10.6464C9.94732 10.7402 10 10.8674 10 11C10 11.1326 9.94732 11.2598 9.85355 11.3536C9.75979 11.4473 9.63261 11.5 9.5 11.5H3.5C3.36739 11.5 3.24021 11.4473 3.14645 11.3536C3.05268 11.2598 3 11.1326 3 11ZM3 13C3 12.8674 3.05268 12.7402 3.14645 12.6464C3.24021 12.5527 3.36739 12.5 3.5 12.5H9.5C9.63261 12.5 9.75979 12.5527 9.85355 12.6464C9.94732 12.7402 10 12.8674 10 13C10 13.1326 9.94732 13.2598 9.85355 13.3536C9.75979 13.4473 9.63261 13.5 9.5 13.5H3.5C3.36739 13.5 3.24021 13.4473 3.14645 13.3536C3.05268 13.2598 3 13.1326 3 13ZM11 5C11 4.86739 11.0527 4.74021 11.1464 4.64645C11.2402 4.55268 11.3674 4.5 11.5 4.5H12.5C12.6326 4.5 12.7598 4.55268 12.8536 4.64645C12.9473 4.74021 13 4.86739 13 5C13 5.13261 12.9473 5.25979 12.8536 5.35355C12.7598 5.44732 12.6326 5.5 12.5 5.5H11.5C11.3674 5.5 11.2402 5.44732 11.1464 5.35355C11.0527 5.25979 11 5.13261 11 5ZM11 7C11 6.86739 11.0527 6.74021 11.1464 6.64645C11.2402 6.55268 11.3674 6.5 11.5 6.5H12.5C12.6326 6.5 12.7598 6.55268 12.8536 6.64645C12.9473 6.74021 13 6.86739 13 7C13 7.13261 12.9473 7.25979 12.8536 7.35355C12.7598 7.44732 12.6326 7.5 12.5 7.5H11.5C11.3674 7.5 11.2402 7.44732 11.1464 7.35355C11.0527 7.25979 11 7.13261 11 7ZM11 9C11 8.86739 11.0527 8.74021 11.1464 8.64645C11.2402 8.55268 11.3674 8.5 11.5 8.5H12.5C12.6326 8.5 12.7598 8.55268 12.8536 8.64645C12.9473 8.74021 13 8.86739 13 9C13 9.13261 12.9473 9.25979 12.8536 9.35355C12.7598 9.44732 12.6326 9.5 12.5 9.5H11.5C11.3674 9.5 11.2402 9.44732 11.1464 9.35355C11.0527 9.25979 11 9.13261 11 9ZM11 11C11 10.8674 11.0527 10.7402 11.1464 10.6464C11.2402 10.5527 11.3674 10.5 11.5 10.5H12.5C12.6326 10.5 12.7598 10.5527 12.8536 10.6464C12.9473 10.7402 13 10.8674 13 11C13 11.1326 12.9473 11.2598 12.8536 11.3536C12.7598 11.4473 12.6326 11.5 12.5 11.5H11.5C11.3674 11.5 11.2402 11.4473 11.1464 11.3536C11.0527 11.2598 11 11.1326 11 11ZM11 13C11 12.8674 11.0527 12.7402 11.1464 12.6464C11.2402 12.5527 11.3674 12.5 11.5 12.5H12.5C12.6326 12.5 12.7598 12.5527 12.8536 12.6464C12.9473 12.7402 13 12.8674 13 13C13 13.1326 12.9473 13.2598 12.8536 13.3536C12.7598 13.4473 12.6326 13.5 12.5 13.5H11.5C11.3674 13.5 11.2402 13.4473 11.1464 13.3536C11.0527 13.2598 11 13.1326 11 13Z" fill="#828282"/>
</g>
<defs>
<clipPath id="clip0_1597_9518">
<rect width="16" height="16" fill="white" transform="translate(0 0.5)"/>
</clipPath>
</defs>
</svg>
