<svg width="16" height="17" viewBox="0 0 16 17" fill="none" xmlns="http://www.w3.org/2000/svg">
<g clip-path="url(#clip0_1597_4003)">
<path d="M13.4673 12.87C12.7573 11.726 11.1943 10.5 7.99925 10.5C4.80425 10.5 3.24225 11.725 2.53125 12.87C3.18633 13.6912 4.01817 14.3542 4.96486 14.8095C5.91156 15.2649 6.94874 15.5009 7.99925 15.5C9.04976 15.5009 10.0869 15.2649 11.0336 14.8095C11.9803 14.3542 12.8122 13.6912 13.4673 12.87Z" fill="#333333"/>
<path fill-rule="evenodd" clip-rule="evenodd" d="M8 9.5C8.79565 9.5 9.55871 9.18393 10.1213 8.62132C10.6839 8.05871 11 7.29565 11 6.5C11 5.70435 10.6839 4.94129 10.1213 4.37868C9.55871 3.81607 8.79565 3.5 8 3.5C7.20435 3.5 6.44129 3.81607 5.87868 4.37868C5.31607 4.94129 5 5.70435 5 6.5C5 7.29565 5.31607 8.05871 5.87868 8.62132C6.44129 9.18393 7.20435 9.5 8 9.5Z" fill="#333333"/>
<path fill-rule="evenodd" clip-rule="evenodd" d="M8 1.5C6.14348 1.5 4.36301 2.2375 3.05025 3.55025C1.7375 4.86301 1 6.64348 1 8.5C1 10.3565 1.7375 12.137 3.05025 13.4497C4.36301 14.7625 6.14348 15.5 8 15.5C9.85652 15.5 11.637 14.7625 12.9497 13.4497C14.2625 12.137 15 10.3565 15 8.5C15 6.64348 14.2625 4.86301 12.9497 3.55025C11.637 2.2375 9.85652 1.5 8 1.5ZM0 8.5C0 6.37827 0.842855 4.34344 2.34315 2.84315C3.84344 1.34285 5.87827 0.5 8 0.5C10.1217 0.5 12.1566 1.34285 13.6569 2.84315C15.1571 4.34344 16 6.37827 16 8.5C16 10.6217 15.1571 12.6566 13.6569 14.1569C12.1566 15.6571 10.1217 16.5 8 16.5C5.87827 16.5 3.84344 15.6571 2.34315 14.1569C0.842855 12.6566 0 10.6217 0 8.5Z" fill="#333333"/>
</g>
<defs>
<clipPath id="clip0_1597_4003">
<rect width="16" height="16" fill="white" transform="translate(0 0.5)"/>
</clipPath>
</defs>
</svg>
