<svg width="25" height="24" viewBox="0 0 25 24" fill="none" xmlns="http://www.w3.org/2000/svg">
<g clip-path="url(#clip0_914_6586)">
<path fill-rule="evenodd" clip-rule="evenodd" d="M21.5 4.5H3.5C3.10218 4.5 2.72064 4.65804 2.43934 4.93934C2.15804 5.22064 2 5.60218 2 6V18C2 18.3978 2.15804 18.7794 2.43934 19.0607C2.72064 19.342 3.10218 19.5 3.5 19.5H21.5C21.8978 19.5 22.2794 19.342 22.5607 19.0607C22.842 18.7794 23 18.3978 23 18V6C23 5.60218 22.842 5.22064 22.5607 4.93934C22.2794 4.65804 21.8978 4.5 21.5 4.5ZM3.5 3C2.70435 3 1.94129 3.31607 1.37868 3.87868C0.816071 4.44129 0.5 5.20435 0.5 6L0.5 18C0.5 18.7956 0.816071 19.5587 1.37868 20.1213C1.94129 20.6839 2.70435 21 3.5 21H21.5C22.2956 21 23.0587 20.6839 23.6213 20.1213C24.1839 19.5587 24.5 18.7956 24.5 18V6C24.5 5.20435 24.1839 4.44129 23.6213 3.87868C23.0587 3.31607 22.2956 3 21.5 3H3.5Z" fill="#0090FF"/>
<path d="M17 8.25C17 8.05109 17.079 7.86032 17.2197 7.71967C17.3603 7.57902 17.5511 7.5 17.75 7.5H20.75C20.9489 7.5 21.1397 7.57902 21.2803 7.71967C21.421 7.86032 21.5 8.05109 21.5 8.25V9.75C21.5 9.94891 21.421 10.1397 21.2803 10.2803C21.1397 10.421 20.9489 10.5 20.75 10.5H17.75C17.5511 10.5 17.3603 10.421 17.2197 10.2803C17.079 10.1397 17 9.94891 17 9.75V8.25ZM2 13.5H23V16.5H2V13.5Z" fill="#0090FF"/>
</g>
<defs>
<clipPath id="clip0_914_6586">
<rect width="24" height="24" fill="white" transform="translate(0.5)"/>
</clipPath>
</defs>
</svg>
